<svg width="69" height="69" viewBox="0 0 69 69" fill="none" xmlns="http://www.w3.org/2000/svg">
<rect width="69" height="69" rx="16" fill="#404EED"/>
<path d="M6 34C6 25.1634 13.1634 18 22 18H43C51.8366 18 59 25.1634 59 34V50H22C13.1634 50 6 42.8366 6 34Z" fill="white"/>
<path d="M43 24H22C16.4772 24 12 28.4772 12 34C12 39.5228 16.4772 44 22 44H43C48.5228 44 53 39.5228 53 34C53 28.4772 48.5228 24 43 24Z" fill="#E4E4E4"/>
<path d="M22 39C24.7614 39 27 36.7614 27 34C27 31.2386 24.7614 29 22 29C19.2386 29 17 31.2386 17 34C17 36.7614 19.2386 39 22 39Z" fill="black"/>
<path d="M20 33C20.5523 33 21 32.5523 21 32C21 31.4477 20.5523 31 20 31C19.4477 31 19 31.4477 19 32C19 32.5523 19.4477 33 20 33Z" fill="white"/>
<path d="M44 39C46.7614 39 49 36.7614 49 34C49 31.2386 46.7614 29 44 29C41.2386 29 39 31.2386 39 34C39 36.7614 41.2386 39 44 39Z" fill="black"/>
<path d="M42 33C42.5523 33 43 32.5523 43 32C43 31.4477 42.5523 31 42 31C41.4477 31 41 31.4477 41 32C41 32.5523 41.4477 33 42 33Z" fill="white"/>
</svg>
