<svg width="418" height="276" viewBox="0 0 418 276" fill="none" xmlns="http://www.w3.org/2000/svg">
<path d="M327.618 69.3898H44.8955V277.123H327.618V69.3898Z" stroke="#DDDDDD" stroke-width="0.658605" stroke-linecap="round" stroke-linejoin="round"/>
<path d="M261.207 179.761H241.873V225.958H261.207V179.761Z" fill="#EDEDED"/>
<path d="M311.989 129.363H292.654V225.952H311.989V129.363Z" fill="#EDEDED"/>
<path d="M320.361 225.952H218.94V96.1817" stroke="#DDDDDD" stroke-width="1.31721" stroke-miterlimit="10"/>
<path d="M286.601 167.466H267.267V225.952H286.601V167.466Z" stroke="#DDDDDD" stroke-width="0.658605" stroke-linecap="round" stroke-linejoin="round"/>
<path d="M111.99 118.743C111.931 117.746 111.837 116.755 111.707 115.793M91.6118 115.793C91.4879 116.767 91.3935 117.758 91.3345 118.743" stroke="#DDDDDD" stroke-width="1.31721" stroke-linecap="round" stroke-linejoin="round"/>
<path d="M127.177 113.61C122.081 114.715 116.91 115.441 111.707 115.782C110.527 106.442 106.433 98.4061 101.677 98.4061C96.9218 98.4061 92.8272 106.442 91.6472 115.782C86.4461 115.44 81.2773 114.715 76.1833 113.61L75.4045 180.375C81.3045 182.103 86.4021 184.121 94.8745 184.865V184.965C97.3525 185.107 99.5945 185.166 101.707 185.16C103.819 185.154 106.061 185.107 108.545 184.965V184.865C117.005 184.121 122.115 182.103 128.015 180.375L127.177 113.61ZM101.66 102.17C104.981 102.17 107.766 108.342 108.15 114.979H95.1577C95.553 108.342 98.3437 102.17 101.66 102.17Z" stroke="#DDDDDD" stroke-width="1.31721" stroke-linecap="round" stroke-linejoin="round"/>
<path d="M336.426 59.4307H36.0869V69.3899H336.426V59.4307Z" stroke="#DDDDDD" stroke-width="1.31721" stroke-miterlimit="10"/>
<path d="M238.262 169.46L252.705 153.07L265.042 150.651L275.444 131.918L290.967 125.812L306.685 111.109" stroke="#DDDDDD" stroke-width="0.658605" stroke-linecap="round" stroke-linejoin="round"/>
<path d="M311.328 107.333L299.498 110.637L306.791 118.743L311.328 107.333Z" fill="#EDEDED"/>
<path d="M157.397 123.723L151.999 116.289C151.889 116.136 151.745 116.01 151.578 115.924C151.411 115.838 151.225 115.793 151.037 115.793C150.849 115.793 150.663 115.838 150.496 115.924C150.328 116.01 150.184 116.136 150.075 116.289L144.677 123.723C144.544 123.899 144.464 124.11 144.445 124.329C144.426 124.549 144.469 124.77 144.569 124.967C144.669 125.163 144.823 125.328 145.012 125.442C145.201 125.556 145.418 125.614 145.638 125.611H146.818C147.131 125.611 147.431 125.735 147.653 125.957C147.874 126.178 147.998 126.478 147.998 126.791V133.458C147.998 133.771 148.123 134.071 148.344 134.292C148.565 134.514 148.865 134.638 149.178 134.638H152.836C153.149 134.638 153.449 134.514 153.671 134.292C153.892 134.071 154.016 133.771 154.016 133.458V126.803C154.016 126.49 154.141 126.19 154.362 125.968C154.583 125.747 154.883 125.623 155.196 125.623H156.376C156.604 125.64 156.832 125.591 157.032 125.481C157.232 125.371 157.396 125.206 157.504 125.005C157.612 124.803 157.659 124.575 157.64 124.348C157.621 124.12 157.537 123.903 157.397 123.723Z" fill="#DDDDDD" stroke="#DDDDDD" stroke-width="0.658605" stroke-miterlimit="10"/>
<path d="M164.967 164.144L156.229 155.424C155.907 155.103 155.654 154.72 155.485 154.298C155.315 153.877 155.233 153.426 155.242 152.971C155.252 152.517 155.353 152.07 155.539 151.656C155.726 151.242 155.995 150.87 156.329 150.562L172.849 135.399C173.455 134.846 174.241 134.531 175.062 134.514L182.56 134.361C183.013 134.351 183.464 134.433 183.884 134.602C184.305 134.771 184.687 135.023 185.008 135.343C185.329 135.663 185.581 136.045 185.751 136.465C185.92 136.885 186.003 137.335 185.994 137.789L185.853 145.293C185.835 146.115 185.514 146.901 184.95 147.5L169.816 164.02C169.511 164.354 169.141 164.623 168.728 164.811C168.316 164.998 167.871 165.101 167.418 165.113C166.965 165.124 166.515 165.044 166.094 164.878C165.672 164.711 165.289 164.462 164.967 164.144Z" stroke="#DDDDDD" stroke-width="1.31721" stroke-linecap="round" stroke-linejoin="round"/>
<path d="M172.442 153.134C171.989 153.632 171.393 153.978 170.737 154.126C170.081 154.213 169.415 154.073 168.849 153.73L167.409 155.17C167.389 155.191 167.366 155.207 167.339 155.218C167.313 155.229 167.284 155.235 167.256 155.235C167.228 155.235 167.201 155.229 167.175 155.218C167.15 155.207 167.127 155.19 167.108 155.17L165.197 153.258C165.176 153.24 165.16 153.217 165.149 153.191C165.138 153.166 165.132 153.139 165.132 153.111C165.132 153.083 165.138 153.056 165.149 153.03C165.16 153.005 165.176 152.982 165.197 152.963L166.483 151.671C166.141 151.3 165.84 150.951 165.586 150.627C165.557 150.582 165.544 150.527 165.551 150.474C165.555 150.417 165.581 150.365 165.622 150.326L167.309 148.934C167.332 148.913 167.359 148.898 167.389 148.89C167.419 148.882 167.45 148.881 167.48 148.886C167.542 148.898 167.597 148.934 167.633 148.987C167.722 149.134 167.816 149.276 167.917 149.417C168.017 149.559 168.159 149.748 168.336 149.966C168.491 150.175 168.663 150.373 168.849 150.556C168.999 150.725 169.182 150.861 169.386 150.957C169.527 151.032 169.688 151.061 169.846 151.04C169.956 151.024 170.063 150.992 170.165 150.946C170.233 150.911 170.297 150.868 170.353 150.816C170.413 150.756 170.46 150.686 170.495 150.609C170.548 150.494 170.588 150.374 170.613 150.249C170.644 150.052 170.63 149.85 170.572 149.659C170.5 149.389 170.387 149.133 170.235 148.898C170.043 148.588 169.902 148.25 169.816 147.895C169.726 147.521 169.686 147.136 169.698 146.751C169.712 146.322 169.812 145.9 169.993 145.512C170.192 145.071 170.47 144.671 170.814 144.332C171.256 143.86 171.84 143.547 172.477 143.441C173.125 143.362 173.781 143.482 174.359 143.783L175.84 142.296C175.86 142.276 175.884 142.259 175.91 142.248C175.937 142.237 175.965 142.231 175.994 142.231C176.022 142.229 176.051 142.233 176.077 142.243C176.104 142.253 176.128 142.269 176.147 142.29L178.059 144.196C178.1 144.239 178.123 144.296 178.123 144.355C178.123 144.415 178.1 144.472 178.059 144.515L176.778 145.801C177.103 146.161 177.416 146.521 177.711 146.892C177.741 146.937 177.755 146.991 177.752 147.046C177.75 147.073 177.743 147.101 177.729 147.125C177.716 147.15 177.698 147.171 177.675 147.187L175.988 148.58C175.964 148.598 175.936 148.612 175.907 148.619C175.877 148.626 175.847 148.627 175.817 148.621C175.788 148.62 175.759 148.611 175.734 148.595C175.71 148.58 175.689 148.558 175.675 148.532C175.309 147.95 174.884 147.406 174.407 146.91C174.26 146.744 174.081 146.61 173.882 146.515C173.736 146.44 173.572 146.411 173.41 146.432C173.3 146.448 173.193 146.478 173.091 146.521C173.019 146.554 172.953 146.6 172.896 146.656C172.84 146.715 172.794 146.783 172.761 146.857C172.707 146.971 172.669 147.092 172.648 147.217C172.621 147.414 172.637 147.616 172.696 147.807C172.767 148.077 172.88 148.333 173.032 148.568C173.213 148.882 173.35 149.22 173.439 149.571C173.535 149.946 173.577 150.334 173.563 150.721C173.545 151.148 173.443 151.567 173.262 151.954C173.061 152.394 172.783 152.793 172.442 153.134Z" fill="#EDEDED"/>
<path d="M194.095 171.613V176.221C194.095 177.189 196.88 177.991 200.32 177.991C203.759 177.991 206.55 177.206 206.55 176.221V171.613H194.095Z" fill="#F9F9F9" stroke="#DDDDDD" stroke-width="0.658605" stroke-linecap="round" stroke-linejoin="round"/>
<path d="M194.095 167.123V171.731C194.095 172.699 196.88 173.501 200.32 173.501C203.759 173.501 206.55 172.717 206.55 171.731V167.123H194.095Z" fill="#F9F9F9" stroke="#DDDDDD" stroke-width="0.658605" stroke-linecap="round" stroke-linejoin="round"/>
<path d="M194.095 162.633V167.241C194.095 168.209 196.88 169.011 200.32 169.011C203.759 169.011 206.55 168.227 206.55 167.241V162.633H194.095Z" fill="#F9F9F9" stroke="#DDDDDD" stroke-width="0.658605" stroke-linecap="round" stroke-linejoin="round"/>
<path d="M194.095 158.12V162.728C194.095 163.695 196.88 164.498 200.32 164.498C203.759 164.498 206.55 163.713 206.55 162.728V158.12H194.095Z" fill="#F9F9F9" stroke="#DDDDDD" stroke-width="0.658605" stroke-linecap="round" stroke-linejoin="round"/>
<path d="M194.095 153.66V158.267C194.095 159.235 196.88 160.037 200.32 160.037C203.759 160.037 206.55 159.253 206.55 158.267V153.66H194.095Z" fill="#F9F9F9" stroke="#DDDDDD" stroke-width="0.658605" stroke-linecap="round" stroke-linejoin="round"/>
<path d="M194.095 149.17V153.778C194.095 154.745 196.88 155.548 200.32 155.548C203.759 155.548 206.55 154.763 206.55 153.778V149.17H194.095Z" fill="#F9F9F9" stroke="#DDDDDD" stroke-width="0.658605" stroke-linecap="round" stroke-linejoin="round"/>
<path d="M206.55 149.17C206.55 150.137 203.759 150.94 200.32 150.94C196.88 150.94 194.095 150.155 194.095 149.17C194.095 148.184 196.88 147.4 200.32 147.4C203.759 147.4 206.55 148.202 206.55 149.17Z" fill="#F9F9F9" stroke="#DDDDDD" stroke-width="0.658605" stroke-linecap="round" stroke-linejoin="round"/>
<path d="M181.457 174.109V178.717C181.457 179.684 184.248 180.487 187.682 180.487C191.115 180.487 193.912 179.702 193.912 178.717V174.109H181.457Z" fill="#F9F9F9" stroke="#DDDDDD" stroke-width="0.658605" stroke-linecap="round" stroke-linejoin="round"/>
<path d="M181.457 169.619V174.227C181.457 175.195 184.248 175.997 187.682 175.997C191.115 175.997 193.912 175.212 193.912 174.227V169.619H181.457Z" fill="#F9F9F9" stroke="#DDDDDD" stroke-width="0.658605" stroke-linecap="round" stroke-linejoin="round"/>
<path d="M181.457 165.129V169.737C181.457 170.705 184.248 171.507 187.682 171.507C191.115 171.507 193.912 170.722 193.912 169.737V165.129H181.457Z" fill="#F9F9F9" stroke="#DDDDDD" stroke-width="0.658605" stroke-linecap="round" stroke-linejoin="round"/>
<path d="M181.457 160.639V165.247C181.457 166.215 184.248 167.017 187.682 167.017C191.115 167.017 193.912 166.232 193.912 165.247V160.639H181.457Z" fill="#F9F9F9" stroke="#DDDDDD" stroke-width="0.658605" stroke-linecap="round" stroke-linejoin="round"/>
<path d="M193.912 160.639C193.912 161.613 191.121 162.409 187.682 162.409C184.242 162.409 181.457 161.625 181.457 160.639C181.457 159.654 184.248 158.869 187.682 158.869C191.115 158.869 193.912 159.672 193.912 160.639Z" fill="#F9F9F9" stroke="#DDDDDD" stroke-width="0.658605" stroke-linecap="round" stroke-linejoin="round"/>
<path d="M49.4032 203.798C49.4032 207.391 45.8632 212.789 40.0989 211.922C34.3346 211.055 27.3549 206.677 28.2104 196.446C28.4582 193.461 31.8684 174.793 32.4171 170.663C33.2726 164.286 49.2734 158.94 48.5713 175.301C48.5713 175.796 48.53 176.28 48.5123 176.764C48.3943 180.257 48.3884 183.46 48.4533 186.363C48.6598 194.965 49.4032 200.919 49.4032 203.798Z" fill="#FF78B9"/>
<path d="M48.4533 186.363C43.4619 186.328 39.6033 182.918 40.1402 177.26L48.5123 176.764C48.3943 180.257 48.3884 183.49 48.4533 186.363Z" fill="#FF3F9B"/>
<path d="M80.3192 252.26L83.1748 294.569H56.1941L61.0852 247.045L54.5952 229.711L43.0194 207.45C43.8361 204.86 44.4806 202.219 44.9487 199.544L50.0994 190.358C50.9419 189.966 51.8045 189.62 52.6836 189.319L52.7957 189.284H52.9019C56.0348 188.222 61.3802 186.924 66.7787 187.897C71.2922 188.717 75.0387 190.452 78.0536 195.213C81.4343 200.565 83.871 209.739 85.3814 225.734C86.9744 242.331 82.7795 249.706 80.3192 252.26Z" fill="#FBD51D"/>
<path d="M78.0713 195.16C73.6522 197.089 69.6874 200.871 67.7109 207.857C66.6929 211.477 65.2905 214.978 63.5278 218.3C61.2925 222.635 58.2647 226.514 54.6011 229.734L43.0253 207.473C43.8419 204.884 44.4864 202.242 44.9546 199.567C45.167 199.101 48.5654 191.644 49.3914 190.169C50.9254 189.803 52.0818 189.514 52.6895 189.349L52.8016 189.313H52.9078C56.0407 188.251 61.3861 186.953 66.7846 187.927C71.3099 188.664 75.0623 190.399 78.0713 195.16Z" fill="#FFE05C"/>
<path d="M65.6931 279.188H26.9655C26.9655 279.188 19.4607 242.077 20.8413 216.388C21.2307 209.072 22.3399 202.683 24.5524 198.34C25.1717 197.071 25.986 195.906 26.9655 194.889C27.8977 194.724 28.9243 194.535 30.0158 194.299C31.7858 196.299 35.2314 199.084 40.0989 201.91C40.0989 201.91 41.8335 206.819 43.0489 207.426C44.2643 208.034 44.9782 199.52 44.9782 199.52C45.1906 199.054 48.589 191.597 49.415 190.122C51.0493 189.732 52.2588 189.431 52.8252 189.266H52.9314C52.9314 189.266 53.5214 191.29 54.4831 194.252C56.0171 198.972 58.4774 206.081 60.9731 211.167C62.0636 213.452 62.9196 215.842 63.5278 218.3C65.2978 225.233 65.463 233.587 63.811 244.49C63.693 245.275 63.5927 246.071 63.5101 246.85C61.982 261.405 65.6931 279.188 65.6931 279.188Z" fill="white"/>
<path d="M63.5279 218.3C61.2927 222.636 58.2649 226.514 54.6012 229.734C47.1318 236.047 38.2287 236.873 31.2195 227.581C29.4495 225.221 27.7562 223.144 26.0865 221.321C24.4888 219.531 22.7334 217.888 20.8414 216.412C21.2308 209.096 22.34 202.706 24.5525 198.364C25.1719 197.095 25.9861 195.93 26.9656 194.912C27.8978 194.747 28.9244 194.558 30.0159 194.322C31.7859 196.322 35.2315 199.107 40.099 201.933C40.099 201.933 41.8336 206.842 43.049 207.45C43.8657 204.86 44.5102 202.219 44.9783 199.544C45.1907 199.078 48.5891 191.62 49.4151 190.145C51.0494 189.756 52.2589 189.455 52.8253 189.29H52.9315C52.9315 189.29 53.5215 191.313 54.4832 194.275C56.0172 198.995 58.4775 206.105 60.9732 211.19C62.0623 213.468 62.9182 215.85 63.5279 218.3Z" fill="#F9F9F9"/>
<path d="M57.976 204.187C58.92 206.642 59.9289 209.055 60.926 211.131C62.0349 213.426 62.9068 215.828 63.5279 218.3C64.6725 223.032 65.1452 227.902 64.9321 232.767" stroke="#83ADDF" stroke-width="0.493954" stroke-linecap="round" stroke-linejoin="round"/>
<path d="M32.777 294.569H3.67822C3.58382 284.014 3.38912 275.925 2.80502 269.005C2.2353 261.031 0.661325 253.161 -1.87958 245.582C-6.26918 232.407 -5.95058 220.689 -3.34278 212.193C-1.85008 207.308 0.403718 203.491 2.95842 201.06C3.53766 200.536 4.18455 200.091 4.88182 199.739C11.4957 196.258 26.9537 194.889 26.9537 194.889C25.0421 198.883 25.2368 209.639 26.0746 221.297C27.0127 234.277 28.7414 248.437 29.2252 255.57C29.5733 260.739 30.4052 269.866 31.2725 279.17C31.7917 284.486 32.3109 289.843 32.777 294.569Z" fill="#FED81D"/>
<path d="M26.0864 221.297C24.4887 219.507 22.7332 217.864 20.8413 216.388C20.4283 216.07 20.0094 215.763 19.5905 215.486C13.5017 211.314 6.76389 210.353 -3.34281 212.193C-4.48151 212.394 -5.66151 212.642 -6.88281 212.919C-2.80591 205.786 1.32999 200.529 4.91719 199.739C11.5311 196.258 26.9891 194.889 26.9891 194.889C25.0598 198.883 25.2486 209.633 26.0864 221.297Z" fill="#FFE05C"/>
<path d="M40.0989 201.933C34.075 200.246 29.3373 208.636 29.3373 208.636C26.9352 205.64 25.2935 202.108 24.5524 198.34C24.3118 197.303 24.2381 196.233 24.3341 195.172C24.7117 192.688 27.8741 190.747 28.7591 192.582C29.0984 193.216 29.521 193.801 30.0158 194.322C31.8035 196.322 35.2314 199.107 40.0989 201.933Z" fill="#FED81D"/>
<path d="M54.4714 194.216C54.3711 197.892 54.0407 202.022 54.0407 202.022C49.598 198.559 47.1318 198.482 44.9547 199.544L48.5714 189.98C49.9461 187.531 54.2118 187.319 54.436 190.222C54.5127 191.237 54.5127 192.688 54.4714 194.216Z" fill="#FED81D"/>
<path d="M40.0989 201.933C40.0989 201.933 41.8335 206.842 43.0489 207.45C43.4383 206.152 44.9782 199.544 44.9782 199.544" stroke="#DDDDDD" stroke-width="0.658605" stroke-linecap="round" stroke-linejoin="round"/>
<path d="M43.0253 207.45C43.0253 207.45 47.881 219.102 50.1053 226.849C52.3296 234.596 53.8577 241.941 53.368 251.889C52.8783 261.836 51.8163 270.893 52.0641 271.949C52.3119 273.005 55.6513 275.813 50.7602 279.182" stroke="#DDDDDD" stroke-width="0.658605" stroke-linecap="round" stroke-linejoin="round"/>
<path d="M74.0299 256.874C69.2273 256.632 64.1946 251.004 60.0823 244.803C56.694 239.564 53.7249 234.066 51.2028 228.359L58.0409 218.636C67.062 224.218 80.7854 233.074 84.526 238.979C84.7994 239.398 85.0307 239.843 85.2163 240.307C87.9421 247.399 86.4199 257.494 74.0299 256.874Z" fill="#FED81D"/>
<path d="M74.0299 256.874C69.2273 256.632 64.1946 251.004 60.0823 244.803C63.9114 243.947 68.9795 246.13 69.9884 249.576C71.8174 255.824 86.3196 252.868 84.526 238.956C84.7994 239.374 85.0307 239.819 85.2163 240.283C87.9421 247.399 86.4199 257.494 74.0299 256.874Z" fill="#A7CAF0"/>
<path d="M85.1986 240.307C85.013 239.843 84.7817 239.398 84.5083 238.979C80.7677 233.079 67.0443 224.229 58.0232 218.636L51.1851 228.359C53.7072 234.066 56.6763 239.564 60.0646 244.803C64.1946 251.004 69.2096 256.632 74.0122 256.874" stroke="#CC9C0C" stroke-width="0.493954" stroke-linecap="round" stroke-linejoin="round"/>
<path d="M44.7541 222.229L42.1699 226.56L45.1966 226.289C45.1966 226.289 67.357 207.35 67.6992 206.701C68.0414 206.052 66.1829 204.004 65.5693 204.229C64.9557 204.453 44.7541 222.229 44.7541 222.229Z" fill="#683F1D"/>
<path d="M44.7539 222.229C45.1787 219.757 45.1315 218.902 45.515 218.383C45.8985 217.863 49.8338 214.913 50.7837 214.583C51.7336 214.253 54.1585 215.439 54.1585 215.439C54.1585 215.439 56.0111 215.675 57.1498 215.863C58.2885 216.052 58.2059 218.748 58.9493 219.209C59.6927 219.669 60.619 219.421 61.1913 220.613C61.7636 221.805 60.7606 222.607 61.1913 223.368C61.622 224.129 62.7076 224.601 62.3713 225.935C62.035 227.268 61.3742 227.262 61.563 228.023C61.7518 228.784 62.5129 230.873 59.9936 231.681C57.4743 232.49 55.6335 233.074 54.247 232.537C52.8605 232 51.2144 231.062 50.9784 230.177C50.9784 230.177 48.0284 229.74 46.7894 227.362C46.7894 227.362 43.6093 226.413 45.9339 224.802C45.9339 224.802 44.7952 223.657 45.5091 222.707L44.7539 222.229Z" fill="#FF78B9"/>
<path d="M54.2529 232.537C52.8664 231.994 51.2203 231.062 50.9843 230.177C50.9843 230.177 48.0343 229.74 46.7953 227.362C46.7953 227.362 43.6152 226.412 45.9398 224.802C45.9398 224.802 44.8011 223.657 45.515 222.707L44.7539 222.235C45.1787 219.763 45.1315 218.908 45.515 218.388" stroke="#FF3F9B" stroke-width="0.493954" stroke-linecap="round" stroke-linejoin="round"/>
<path d="M45.515 222.701C48.6892 219.81 54.365 215.621 56.43 215.751" stroke="#FF3F9B" stroke-width="0.493954" stroke-linecap="round" stroke-linejoin="round"/>
<path d="M45.9399 224.79C50.7366 224.572 54.7545 222.483 57.5511 220.477" stroke="#FF3F9B" stroke-width="0.493954" stroke-linecap="round" stroke-linejoin="round"/>
<path d="M46.7954 227.356C48.9902 228.271 57.2325 225.917 59.268 223.923" stroke="#FF3F9B" stroke-width="0.493954" stroke-linecap="round" stroke-linejoin="round"/>
<path d="M50.9844 230.171C52.1054 230.389 56.4655 230.012 58.7075 228.507" stroke="#FF3F9B" stroke-width="0.493954" stroke-linecap="round" stroke-linejoin="round"/>
<path d="M19.5905 215.486C19.4543 218.478 18.9894 221.445 18.204 224.336L17.6435 226.466C17.555 226.814 17.4606 227.168 17.3603 227.534C17.0968 228.525 16.8175 229.561 16.5225 230.643L16.3455 231.286C15.9915 232.566 15.6139 233.911 15.2186 235.292C15.0888 235.758 14.9531 236.224 14.8174 236.69C13.8616 239.983 12.7937 243.487 11.6255 247.039C11.4603 247.546 11.2892 248.06 11.1181 248.567C10.2921 251.01 9.42479 253.47 8.51029 255.895C8.31559 256.414 8.1209 256.927 7.9203 257.435L7.3303 258.957C7.17099 259.358 7.0117 259.753 6.8465 260.137C5.578 263.24 4.2269 266.226 2.8168 268.987L2.6693 269.27C-2.0094 278.262 -7.4138 284.569 -13.2607 283.908C-18.14 283.365 -21.3968 281.436 -23.5267 278.84C-26.7009 274.94 -27.3263 269.542 -27.0195 265.058C-26.9221 263.547 -26.7111 262.046 -26.3882 260.568C-25.2967 255.629 -16.2166 229.298 -6.8356 212.925C-2.7587 205.792 1.3772 200.535 4.9644 199.745C13.3306 197.874 20.0153 203.55 19.5905 215.486Z" fill="#FED81D"/>
<path d="M19.5905 215.486C13.5017 211.314 6.76389 210.353 -3.34281 212.193C-4.48151 212.394 -5.66151 212.642 -6.88281 212.919C-2.80591 205.786 1.32999 200.529 4.91719 199.739C13.3306 197.874 20.0153 203.55 19.5905 215.486Z" fill="#FFE05C"/>
<path d="M19.5906 215.486C19.4544 218.478 18.9894 221.445 18.2041 224.336C15.378 235.144 9.94406 255.14 2.80505 268.975" stroke="#83ADDF" stroke-width="0.493954" stroke-linecap="round" stroke-linejoin="round"/>
<path d="M2.63976 269.288C-2.03894 278.279 -7.44334 284.587 -13.2902 283.926C-18.1695 283.383 -21.4263 281.454 -23.5562 278.858C-26.7304 274.958 -27.3558 269.559 -27.049 265.075C-26.3066 265.216 -25.5915 265.475 -24.9309 265.842C-21.857 267.535 -19.8392 271.312 -17.4733 274.061C-12.1102 280.25 -5.34884 269.925 2.63976 269.288Z" fill="#FDC419"/>
<path d="M33.2728 147.04L25.3904 155.648C15.8265 154.415 13.1125 147.978 14.6878 142.479C14.7468 142.284 14.8117 142.084 14.8884 141.889C17.1186 136.544 28.1516 133.387 32.0633 142.349C32.6967 143.844 33.1043 145.425 33.2728 147.04Z" fill="#7F542D"/>
<path d="M33.2727 147.04L25.3903 155.648C15.8264 154.415 13.1124 147.978 14.6877 142.479C14.7467 142.284 14.8116 142.084 14.8883 141.889C16.4872 148.409 20.7883 151.087 22.9772 146.827C24.9478 143.022 28.9539 141.565 32.0632 142.349C32.6966 143.844 33.1042 145.425 33.2727 147.04Z" fill="#704725"/>
<path d="M47.48 148.521C47.48 148.521 36.7656 169.879 29.0897 166.811C27.3992 166.145 25.9422 164.995 24.9007 163.507C21.7678 159.046 22.6469 152.155 26.2341 148.886C29.2175 146.188 32.896 144.377 36.8541 143.659C40.2584 139.287 47.1909 137.836 49.8341 140.786C49.8931 140.845 49.9462 140.91 49.9993 140.975C52.4773 144.149 50.1055 146.975 47.48 148.521Z" fill="#7F542D"/>
<path d="M47.4798 148.521C47.4798 148.521 36.7654 169.879 29.0895 166.811C27.399 166.145 25.9421 164.995 24.9005 163.507C28.4405 163.707 30.8005 162.846 31.2253 160.002C31.8153 156.037 32.6826 147.712 32.6826 147.712C32.6826 147.712 45.5387 148.114 49.7926 140.786C49.8516 140.845 49.9047 140.91 49.9578 140.975C52.4771 144.149 50.1053 146.975 47.4798 148.521Z" fill="#704725"/>
<path d="M49.8401 180.05C44.182 181.49 37.5563 177.891 33.2906 173.956C30.9306 175.136 26.6885 172.551 26.9953 169.106C27.3375 165.365 30.1164 164.74 32.087 166.038C32.6888 165.609 33.2 165.066 33.5915 164.439C34.3444 163.195 34.7894 161.789 34.8895 160.338C35.4441 154.698 32.6947 147.689 32.6947 147.689C34.8605 149.135 37.3739 149.975 39.9739 150.121C42.574 150.267 45.1658 149.715 47.4801 148.521C47.6099 148.521 51.6101 154.887 53.7754 161.501C54.0232 162.262 54.2474 163.023 54.4362 163.784C54.6889 164.805 54.8858 165.839 55.0262 166.881C55.9407 173.112 54.6899 178.811 49.8401 180.05Z" fill="#FF78B9"/>
<path d="M43.0311 159.978C43.0311 160.143 43.0799 160.304 43.1713 160.441C43.2627 160.577 43.3927 160.684 43.5447 160.747C43.6967 160.81 43.8639 160.826 44.0253 160.794C44.1867 160.762 44.3349 160.683 44.4513 160.567C44.5676 160.45 44.6468 160.302 44.6789 160.141C44.711 159.979 44.6946 159.812 44.6316 159.66C44.5686 159.508 44.462 159.378 44.3252 159.287C44.1884 159.195 44.0276 159.146 43.863 159.146C43.6424 159.146 43.4308 159.234 43.2748 159.39C43.1188 159.546 43.0311 159.758 43.0311 159.978Z" fill="#683F1D"/>
<path d="M48.5714 158.421C48.5714 158.585 48.6202 158.746 48.7116 158.883C48.803 159.02 48.9329 159.127 49.085 159.189C49.237 159.252 49.4042 159.269 49.5656 159.237C49.727 159.205 49.8752 159.125 49.9915 159.009C50.1079 158.893 50.1871 158.745 50.2192 158.583C50.2513 158.422 50.2348 158.255 50.1719 158.103C50.1089 157.951 50.0023 157.821 49.8655 157.729C49.7287 157.638 49.5678 157.589 49.4033 157.589C49.1827 157.589 48.9711 157.677 48.8151 157.833C48.6591 157.989 48.5714 158.2 48.5714 158.421Z" fill="#683F1D"/>
<path d="M34.075 175.307C35.2383 175.307 36.1813 174.364 36.1813 173.2C36.1813 172.037 35.2383 171.094 34.075 171.094C32.9118 171.094 31.9688 172.037 31.9688 173.2C31.9688 174.364 32.9118 175.307 34.075 175.307Z" fill="#FED81D"/>
<path d="M37.1018 156.545C37.5679 157.559 42.5652 155.459 41.397 153.53C40.4471 151.972 36.4056 155.058 37.1018 156.545Z" fill="#FF3F9B"/>
<path d="M45.3911 152.692C45.2141 154.096 49.1848 153.842 49.1553 152.834C49.1258 151.825 45.6212 150.851 45.3911 152.692Z" fill="#FF3F9B"/>
<path d="M33.5736 169.377C31.4024 167.56 29.7209 168.545 29.2371 170.079" stroke="#FF3F9B" stroke-width="0.493954" stroke-linecap="round" stroke-linejoin="round"/>
<path d="M32.14 171.69C30.4644 170.958 31.2373 168.498 33.2787 169.123" stroke="#FF3F9B" stroke-width="0.493954" stroke-linecap="round" stroke-linejoin="round"/>
<path d="M42.7954 166.327C43.4829 166.964 44.317 167.422 45.2237 167.659C46.1303 167.897 47.0816 167.908 47.9933 167.69" stroke="#FF3F9B" stroke-width="0.493954" stroke-linecap="round" stroke-linejoin="round"/>
<path d="M46.6361 157.589C46.6361 160.303 48.3471 161.518 49.828 161.837C50.0491 161.899 50.254 162.009 50.4284 162.158C50.6029 162.307 50.7427 162.493 50.8381 162.702C50.9336 162.911 50.9824 163.138 50.9812 163.368C50.9799 163.597 50.9287 163.824 50.831 164.032" stroke="#FF3F9B" stroke-width="0.493954" stroke-linecap="round" stroke-linejoin="round"/>
<path d="M41.2259 165.2C40.6359 166.669 38.2464 167.082 35.9159 166.12C35.0107 165.757 34.2027 165.187 33.5559 164.457C34.3088 163.213 34.7538 161.807 34.8539 160.356C35.9678 160.196 37.1042 160.352 38.1343 160.804C40.4589 161.748 41.8336 163.713 41.2259 165.2Z" fill="#FF3F9B"/>
<path d="M55.0378 166.876C53.8283 167.076 52.7604 166.787 52.2235 166.008C51.4093 164.828 52.0996 162.899 53.7693 161.495C54.0171 162.256 54.2413 163.017 54.4301 163.778C54.6888 164.799 54.8917 165.833 55.0378 166.876Z" fill="#FF3F9B"/>
<path d="M46.1466 274.037H8.78187L-1.23633 220.483H36.1343L46.1466 274.037Z" fill="#F9F9F9" stroke="#DDDDDD" stroke-width="0.658605" stroke-linecap="round" stroke-linejoin="round"/>
<path d="M24.3521 217.793H20.3401C20.3367 217.622 20.3189 217.453 20.287 217.285C20.0879 216.341 19.5793 215.491 18.8417 214.869C18.1042 214.246 17.1801 213.888 16.216 213.851C15.7875 213.836 15.3612 213.921 14.9708 214.098C14.5804 214.275 14.2365 214.541 13.966 214.874C13.6956 215.207 13.506 215.597 13.4122 216.016C13.3184 216.434 13.3228 216.869 13.4253 217.285C13.4607 217.457 13.508 217.627 13.5669 217.793H9.54309L10.6346 223.634H25.4436L24.3521 217.793Z" fill="#DDDDDD"/>
<path d="M18.4146 218.707C19.0663 217.992 18.8955 216.775 18.0331 215.99C17.1707 215.204 15.9433 215.147 15.2916 215.863C14.6399 216.578 14.8107 217.795 15.6731 218.58C16.5355 219.366 17.7629 219.423 18.4146 218.707Z" fill="#F9F9F9" stroke="#DDDDDD" stroke-width="0.658605" stroke-linecap="round" stroke-linejoin="round"/>
<path d="M18.4933 243.912C22.0333 242.112 24.1632 241.658 24.6765 240.885C25.1898 240.112 31.9571 234.95 33.7625 234.212C35.5679 233.475 38.6713 235.31 38.6713 235.31C38.6713 235.31 41.6213 233.823 43.0255 234.212C44.4297 234.602 45.5153 237.404 43.1848 239.788C41.58 241.434 44.825 242.083 43.5565 243.918C42.9665 244.756 44.3943 245.145 44.1996 247.015C44.0049 248.886 43.0727 249.074 43.1848 249.847C43.2969 250.62 43.7748 252.62 41.8809 253.387C39.987 254.154 31.0544 255.901 29.6384 256.09C28.2224 256.278 21.2604 261.181 21.2604 261.181L18.4933 243.912Z" fill="#FF78B9"/>
<path d="M38.6712 235.31L33.5028 237.77" stroke="#FF3F9B" stroke-width="0.493954" stroke-linecap="round" stroke-linejoin="round"/>
<path d="M33.7623 234.23C35.5677 233.493 38.6711 235.327 38.6711 235.327C38.6711 235.327 41.6211 233.841 43.0253 234.23C44.4295 234.619 45.5151 237.422 43.1846 239.806C41.5798 241.452 44.8248 242.101 43.5563 243.936C42.9663 244.773 44.3941 245.163 44.1994 247.033C44.0047 248.903 43.0725 249.092 43.1846 249.865C43.2967 250.638 43.7746 252.638 41.8807 253.405" stroke="#FF3F9B" stroke-width="0.493954" stroke-linecap="round" stroke-linejoin="round"/>
<path d="M26.5408 263.099C20.9299 267.429 15.9208 270.993 11.4899 273.878C-10.0923 287.92 -18.8656 285.985 -23.562 278.858C-23.5758 278.841 -23.5877 278.824 -23.5974 278.805C-26.807 273.878 -26.9191 269.606 -24.9367 265.825C-20.1105 256.638 -2.84121 250.449 12.3041 245.051C15.2128 244.012 18.0389 243.003 20.688 242.012L26.5408 263.099Z" fill="#FED81D"/>
<path d="M11.4899 273.878C-10.0923 287.92 -18.8656 285.985 -23.562 278.858C-23.5758 278.841 -23.5877 278.824 -23.5974 278.805C-26.807 273.878 -26.9191 269.606 -24.9367 265.825C-21.8628 267.518 -19.845 271.294 -17.4791 274.043C-12.1101 280.25 -5.3487 269.925 2.6399 269.288C4.9999 269.093 7.4602 269.742 10.0208 271.902C10.6746 272.421 11.181 273.102 11.4899 273.878Z" fill="#FFC619"/>
<path d="M-3.01233 281.819C2.05083 279.614 6.90459 276.956 11.4899 273.878C15.9385 270.993 20.9299 267.429 26.5408 263.099L20.6703 242.006" stroke="#CC9C0C" stroke-width="0.493954" stroke-linecap="round" stroke-linejoin="round"/>
<path d="M20.6702 242.006C7.62535 246.909 -9.83275 252.136 -19.3553 259.553" stroke="#CC9C0C" stroke-width="0.493954" stroke-linecap="round" stroke-linejoin="round"/>
<path d="M391.137 203.579C391.153 207.16 390.245 210.684 388.5 213.81C386.694 217.021 384.041 219.674 380.83 221.48C377.951 223.11 374.698 223.965 371.39 223.964C367.292 223.928 363.306 222.622 359.981 220.225C356.657 217.828 354.158 214.459 352.829 210.583C352.329 209.173 351.983 207.713 351.796 206.229C351.687 205.35 351.632 204.465 351.631 203.579C351.631 192.328 360.481 183.201 371.39 183.201C375.467 183.24 379.432 184.535 382.747 186.909C386.061 189.284 388.562 192.622 389.91 196.47C390.726 198.751 391.142 201.157 391.137 203.579Z" fill="#A7CAF0"/>
<path d="M389.91 196.47C389.383 196.187 388.841 195.931 388.288 195.703C386.924 195.124 385.499 194.704 384.04 194.452C378.824 193.526 373.455 194.747 367.826 197.196C362.717 199.414 357.395 202.647 351.784 206.205C351.676 205.326 351.62 204.441 351.619 203.556C351.619 192.305 360.469 183.177 371.378 183.177C375.46 183.216 379.43 184.513 382.747 186.892C386.064 189.271 388.566 192.616 389.91 196.47Z" fill="#C3DCF8"/>
<path d="M384.293 201.19C383.98 204.429 382.641 211.946 380.789 221.48C380.488 223.044 380.199 224.66 379.839 226.318C375.272 249.399 368.481 281.029 365.567 294.546H285.84L291.775 260.361C291.775 260.361 271.886 255.889 267.857 248.36C262.659 238.649 265.497 231.209 271.515 221.026C275.881 213.615 284.601 196.771 291.392 186.145C293.941 182.151 296.218 179.065 297.882 177.631C306.679 170.227 315.759 173.112 324.095 175.271C324.095 175.271 324.095 177.041 324.19 179.915C324.243 182.245 324.32 185.307 324.426 188.765C324.609 194.847 324.886 202.169 325.281 208.919C325.352 210.099 325.423 211.279 325.5 212.459C326.09 220.996 326.845 228 327.895 229.38C328.161 229.728 328.562 229.634 329.075 229.174C330.568 227.805 333.004 223.238 335.718 217.403C336.539 215.633 337.376 213.786 338.226 211.863C342.84 201.385 347.666 189.083 349.89 183.39C350.592 181.584 351.029 180.44 351.106 180.233C351.105 180.221 351.105 180.21 351.106 180.198L352.722 180.416L356.203 180.894C359.23 181.307 363.372 181.885 368.003 182.564C369.183 182.735 370.287 182.935 371.384 183.195C376.605 184.41 381.066 186.735 383.154 191.597C383.55 192.521 383.849 193.484 384.045 194.47C384.464 196.685 384.547 198.95 384.293 201.19Z" fill="#A7CAF0"/>
<path d="M384.039 194.476C378.824 193.55 373.455 194.771 367.826 197.219C362.717 199.438 357.395 202.671 351.784 206.229L350.014 207.356C345.748 210.075 341.807 211.456 338.214 211.869C344.291 198.075 350.74 181.13 351.1 180.239C351.099 180.227 351.099 180.216 351.1 180.204L356.197 180.9C359.224 181.313 363.366 181.891 367.997 182.57C369.177 182.741 370.281 182.941 371.378 183.201C376.599 184.416 381.06 186.741 383.148 191.603C383.544 192.527 383.843 193.49 384.039 194.476Z" fill="#C3DCF8"/>
<path d="M291.775 260.385C299.605 262.473 315.676 266.255 315.676 266.255" stroke="#83ADDF" stroke-width="0.493954" stroke-linecap="round" stroke-linejoin="round"/>
<path d="M300.985 205.586L297.05 232.46C291.48 229.781 289.014 229.032 286.595 229.368C286.212 224.088 298.088 228.955 295.687 218.3C294.224 211.81 297.162 207.09 300.985 205.586Z" fill="#93BEE5"/>
<path d="M297.05 232.46L300.985 205.585L301.628 201.184" stroke="#83ADDF" stroke-width="0.493954" stroke-linecap="round" stroke-linejoin="round"/>
<path d="M283.68 230.171C289.044 228.212 290.383 228.991 308.59 238.283" stroke="#83ADDF" stroke-width="0.493954" stroke-linecap="round" stroke-linejoin="round"/>
<path d="M324.096 175.295C324.096 175.295 324.385 193.585 325.276 208.925C319.086 205.19 315.004 198.895 313.304 195.007C310.791 189.278 306.024 182.227 291.38 186.157C293.929 182.162 296.206 179.077 297.87 177.643C306.679 170.25 315.759 173.135 324.096 175.295Z" fill="#C3DCF8"/>
<path d="M355.832 197.886C355.348 198.559 344.887 204.795 345.082 205.662C345.276 206.53 346.999 210.075 346.999 210.748C346.999 211.173 340.568 219.179 335.365 224.53C332.361 227.634 329.765 229.84 329.069 229.18C327.47 227.657 341.654 191.013 346.221 179.36L351.112 180.204L356.209 180.9C355.773 189.313 356.256 197.296 355.832 197.886Z" fill="#83ADDF"/>
<path d="M351.112 180.204C351.111 180.215 351.111 180.227 351.112 180.239C350.811 181.419 343.377 210.37 335.376 224.53C332.875 228.967 330.32 231.953 327.907 232.2C317.635 233.174 324.107 175.318 324.107 175.318C327.919 176.174 339.542 178.221 346.232 179.384L351.112 180.204Z" fill="white"/>
<path d="M349.182 177.655C348.055 181.012 337.86 188.346 331.606 184.812C328.001 182.77 327.34 179.018 328.284 172.817C328.739 169.778 329.588 166.15 330.644 161.849C331.181 159.695 331.777 157.377 332.414 154.881C333.931 148.875 337.465 145.122 343.896 146.237C350.327 147.353 349.979 153.624 349.796 160.397C349.613 167.171 350.309 174.304 349.182 177.655Z" fill="#FEBD9D"/>
<path d="M340.975 160.775C340.492 167.07 337.719 173.914 328.285 172.817C328.739 169.778 329.588 166.15 330.645 161.849L340.975 160.775Z" fill="#F4A789"/>
<path d="M329.069 183.549C329.335 189.685 329.4 191.602 329.996 191.927C330.591 192.251 333.294 192.983 334.019 192.517C334.745 192.051 338.893 185.213 338.893 185.213C338.893 185.213 333.954 181.832 329.069 183.549Z" fill="#5865F2"/>
<path d="M333.63 189.608C334.485 200.258 336.291 225.598 336.55 227.569C336.81 229.54 328.733 237.876 327.919 236.844C327.105 235.811 322.98 228.206 322.98 225.952C322.98 223.699 330.45 189.178 330.45 189.178L333.63 189.608Z" fill="#5865F2"/>
<path d="M333.483 182.34C338.002 181.873 348.38 175.401 349.731 174.528C351.082 173.655 352.882 179.637 352.728 180.817C352.575 181.997 339.418 190.706 339.418 190.706C339.418 190.706 336.149 184.092 333.253 184.015C330.356 183.938 326.019 190.706 326.019 190.706C320.52 185.756 324.178 177.236 327.943 175.867C327.943 175.867 331.654 182.528 333.483 182.34Z" fill="#4F92E1"/>
<path d="M322.03 271.441L317.995 294.569" stroke="#83ADDF" stroke-width="0.493954" stroke-linecap="round" stroke-linejoin="round"/>
<path d="M355.306 136.791C354.573 137.887 353.574 138.778 352.403 139.383C351.232 139.987 349.927 140.285 348.61 140.249C343.89 140.172 339.358 136.432 339.358 136.432C339.358 136.432 335.228 132.243 335.677 128.526C335.814 127.459 336.342 126.482 337.158 125.782C340.698 122.596 346.22 125.564 348.256 128.974C350.291 132.384 350.905 132.361 353.241 132.39C355.271 132.414 356.162 134.726 355.306 136.791Z" fill="#604730"/>
<path d="M348.61 140.249C343.89 140.172 339.358 136.432 339.358 136.432C339.358 136.432 335.228 132.243 335.677 128.526C340.308 127.428 345.943 128.726 349.489 132.337C352.315 135.216 350.527 138.255 348.61 140.249Z" fill="#473526"/>
<path d="M342.02 133.57C339.199 129.942 339.695 125.8 342.686 124.72" stroke="#896442" stroke-width="0.493954" stroke-linecap="round" stroke-linejoin="round"/>
<path d="M345.778 135.7C342.958 132.077 343.453 127.93 346.444 126.85" stroke="#896442" stroke-width="0.493954" stroke-linecap="round" stroke-linejoin="round"/>
<path d="M352.191 144.509C351.46 146.13 350.632 147.706 349.713 149.229C348.464 151.358 347.031 153.374 345.43 155.253C342.48 158.663 338.633 161.654 334.155 162.038C323.405 162.958 323.906 155.365 324.249 153.064C324.249 153.011 324.249 152.963 324.249 152.916C324.249 152.869 326.579 148.119 329.169 143.394C330.467 140.957 331.897 138.594 333.453 136.314C336.904 131.499 341.665 130.508 346.374 132.496C351.082 134.485 351.613 137.34 352.191 144.509Z" fill="#FEBD9D"/>
<path d="M349.713 149.27C348.462 151.385 347.029 153.387 345.43 155.253H345.123C344.231 155.254 343.356 155.006 342.597 154.536C341.839 154.066 341.227 153.393 340.832 152.593C340.436 151.793 340.272 150.899 340.359 150.011C340.445 149.123 340.778 148.277 341.321 147.568C341.863 146.86 342.593 146.317 343.428 146.002C344.262 145.687 345.169 145.612 346.044 145.786C346.919 145.959 347.728 146.374 348.38 146.984C349.031 147.593 349.499 148.373 349.731 149.235L349.713 149.27Z" fill="#F4A789"/>
<path d="M330.833 147.417C330.833 148.933 330.232 150.386 329.161 151.458C328.09 152.53 326.637 153.133 325.122 153.134C324.823 153.135 324.526 153.111 324.231 153.064C324.231 153.011 324.231 152.963 324.231 152.916C324.231 152.869 326.561 148.119 329.152 143.394C330.223 144.459 330.828 145.906 330.833 147.417Z" fill="#F4A789"/>
<path d="M353.59 149.559L351.979 151.04C349.348 153.518 348.781 154.132 348.781 154.132C347.312 150.45 346.97 144.267 349.749 139.706C352.528 135.145 355.832 134.986 357.572 136.396C357.744 136.535 357.884 136.71 357.979 136.909C359.236 139.24 357.531 145.901 353.59 149.559Z" fill="#604730"/>
<path d="M357.979 136.927C354.734 137.824 351.997 143.14 351.979 151.058C349.348 153.536 348.781 154.149 348.781 154.149C347.312 150.468 346.97 144.285 349.749 139.724C352.528 135.163 355.832 135.004 357.572 136.414C357.744 136.553 357.884 136.728 357.979 136.927Z" fill="#473526"/>
<path d="M347.003 155.944C348.95 158.652 355.163 157.124 355.564 153.153C355.965 149.182 352.443 147.035 349.322 148.823C346.201 150.61 346.419 155.136 347.003 155.944Z" fill="#FEBD9D"/>
<path d="M353.029 136.29C353.619 139.47 356.197 142.037 357.82 142.473" stroke="#896442" stroke-width="0.493954" stroke-linecap="round" stroke-linejoin="round"/>
<path d="M350.309 138.88C350.899 141.712 352.941 145.459 356.888 145.193" stroke="#896442" stroke-width="0.493954" stroke-linecap="round" stroke-linejoin="round"/>
<path d="M333.571 140.65C333.571 140.815 333.619 140.975 333.711 141.112C333.802 141.249 333.932 141.356 334.084 141.419C334.236 141.482 334.403 141.498 334.565 141.466C334.726 141.434 334.874 141.355 334.991 141.238C335.107 141.122 335.186 140.974 335.218 140.812C335.251 140.651 335.234 140.484 335.171 140.332C335.108 140.18 335.002 140.05 334.865 139.958C334.728 139.867 334.567 139.818 334.403 139.818C334.182 139.818 333.97 139.906 333.814 140.062C333.658 140.218 333.571 140.429 333.571 140.65Z" fill="#683F1D"/>
<path d="M339.937 143.706C340.396 143.706 340.769 143.334 340.769 142.874C340.769 142.415 340.396 142.042 339.937 142.042C339.478 142.042 339.105 142.415 339.105 142.874C339.105 143.334 339.478 143.706 339.937 143.706Z" fill="#683F1D"/>
<path d="M349.489 150.066C349.548 150.975 347.005 154.291 346.787 155.323C346.026 158.97 345.984 160.787 341.925 163.483C337.477 166.433 328.945 169.082 324.638 165.672C322.969 164.356 322.042 161.819 322.042 158.852C322.087 156.551 322.589 154.283 323.52 152.179C324.451 150.075 325.792 148.177 327.464 146.597C326.937 148.529 326.291 150.427 325.529 152.279C326.389 151.118 327.317 150.008 328.308 148.957C329.479 148.408 330.77 148.163 332.06 148.243C332.798 148.444 337.123 150.238 337.294 151.058C337.465 151.878 336.78 154.698 337.689 154.899C338.598 155.099 342.58 154.668 343.589 154.019C344.598 153.37 347.318 149.099 347.572 148.444C347.731 148.037 348.403 148.409 348.905 148.969C349.209 149.266 349.413 149.649 349.489 150.066Z" fill="#604730"/>
<path d="M352.822 152.568C351.813 150.208 349.229 150.279 347.819 152.167" stroke="#934735" stroke-width="0.493954" stroke-linecap="round" stroke-linejoin="round"/>
<path d="M348.498 151.465C351.283 150.774 352.51 154.893 348.793 154.887" stroke="#934735" stroke-width="0.493954" stroke-linecap="round" stroke-linejoin="round"/>
<path d="M332.815 136.148C332.609 137.328 338.055 138.337 338.125 136.573C338.196 134.809 333.04 134.892 332.815 136.148Z" fill="#604730"/>
<path d="M346.232 138.591C346.191 139.771 340.657 139.677 340.922 137.93C341.188 136.184 346.279 137.322 346.232 138.591Z" fill="#604730"/>
<path d="M332.704 151.388C336.078 151.931 337.571 151.388 338.45 149.96" stroke="#934735" stroke-width="0.493954" stroke-linecap="round" stroke-linejoin="round"/>
<path d="M331.919 146.243C333.04 143.96 334.526 143.134 335.995 142.969C336.691 142.872 337.339 142.557 337.844 142.07C338.35 141.582 338.688 140.947 338.81 140.255" stroke="#934735" stroke-width="0.493954" stroke-linecap="round" stroke-linejoin="round"/>
<path d="M349.489 150.067C349.548 150.975 347.005 154.291 346.787 155.323C346.026 158.97 345.984 160.787 341.925 163.483C337.477 166.433 328.945 169.082 324.638 165.672C322.969 164.356 322.042 161.819 322.042 158.852C326.762 162.899 333.683 163.33 337.931 162.114C343.925 160.392 347.589 152.421 348.917 148.969C349.216 149.267 349.416 149.65 349.489 150.067Z" fill="#473526"/>
<path d="M322.786 154.149C329.022 159.459 337.612 155.258 338.126 154.887" stroke="#896442" stroke-width="0.493954" stroke-linecap="round" stroke-linejoin="round"/>
<path d="M322.078 159.796C327.27 162.521 335.477 163.277 341.619 154.621" stroke="#896442" stroke-width="0.493954" stroke-linecap="round" stroke-linejoin="round"/>
<path d="M328.532 167.188C329.813 165.348 333.176 164.545 336.704 163.566C343.571 161.648 344.627 158.804 345.294 152.073" stroke="#896442" stroke-width="0.493954" stroke-linecap="round" stroke-linejoin="round"/>
<path d="M349.306 261.588C349.304 262.849 349.026 264.093 348.492 265.234C347.813 266.666 346.842 267.94 345.642 268.975C342.468 271.795 337.524 273.607 331.966 273.607C328.846 273.631 325.752 273.029 322.868 271.837C320.154 270.765 317.814 268.919 316.142 266.527C315.163 265.067 314.634 263.352 314.62 261.594C314.62 261.089 314.667 260.586 314.762 260.09C315.476 256.095 319.022 252.709 323.972 250.927C326.539 250.018 329.243 249.559 331.966 249.57C335.524 249.544 339.038 250.352 342.226 251.93C343.597 252.612 344.861 253.491 345.979 254.538C348.073 256.497 349.306 258.939 349.306 261.588Z" fill="#A7CAF0"/>
<path d="M348.492 265.234C347.813 266.666 346.842 267.94 345.642 268.975C342.468 271.795 337.524 273.607 331.966 273.607C328.846 273.631 325.752 273.029 322.868 271.837C320.154 270.765 317.814 268.919 316.142 266.527C328.52 269.754 341.89 267.034 348.492 265.234Z" fill="#93BEE5"/>
<path d="M387.698 215.179C385.031 219.545 375.986 231.652 367.083 243.21C359.572 252.951 352.162 262.296 348.763 266.267C347.859 267.315 346.808 268.227 345.642 268.975C343.548 270.302 341.209 271.194 338.763 271.599C336.318 272.005 333.816 271.915 331.406 271.335C327.96 270.468 324.975 268.491 323.346 265.358C322.641 263.984 322.212 262.485 322.084 260.945C321.824 258.137 322.526 254.721 323.972 250.915C326.703 243.753 332.066 235.251 338.515 226.932C339.306 225.911 340.12 224.89 340.94 223.876C342.203 222.302 343.497 220.76 344.822 219.25C345.282 218.713 345.743 218.188 346.215 217.657C346.58 217.244 346.946 216.831 347.318 216.424L348.586 215.026L348.657 214.949L349.949 213.562C350.828 212.624 351.719 211.698 352.598 210.795L353.778 209.615C354.209 209.179 354.646 208.742 355.082 208.317C355.1 208.296 355.12 208.276 355.141 208.258C356.062 207.35 356.98 206.469 357.897 205.615L358.021 205.503C361.125 202.572 364.389 199.815 367.797 197.243C371.396 194.576 374.647 192.647 377.278 191.721C381.715 190.163 385.774 192.051 388.258 195.75C391.45 200.417 392.069 208.028 387.698 215.179Z" fill="#A7CAF0"/>
<path d="M376.889 230.318C373.832 234.395 370.452 238.844 367.083 243.21C359.572 252.951 352.162 262.296 348.763 266.267C347.859 267.315 346.807 268.227 345.642 268.975" stroke="#83ADDF" stroke-width="0.493954" stroke-linecap="round" stroke-linejoin="round"/>
<path d="M323.972 250.921C326.703 243.758 332.066 235.257 338.515 226.938C344.426 219.333 350.915 212.196 357.926 205.591" stroke="#83ADDF" stroke-width="0.493954" stroke-linecap="round" stroke-linejoin="round"/>
<path d="M366.788 203.585C363.685 201.815 360.628 202.476 355.088 208.305" stroke="#83ADDF" stroke-width="0.493954" stroke-linecap="round" stroke-linejoin="round"/>
<path d="M388.287 195.727C386.924 195.148 385.499 194.728 384.039 194.476C378.824 193.55 373.455 194.771 367.826 197.219C371.425 194.553 374.676 192.623 377.307 191.697C381.744 190.139 385.803 192.027 388.287 195.727Z" fill="#C3DCF8"/>
<path d="M367.083 243.21C359.572 252.951 352.162 262.296 348.764 266.267C347.859 267.315 346.808 268.227 345.642 268.975C343.548 270.302 341.209 271.194 338.763 271.599C336.318 272.005 333.816 271.915 331.406 271.335C327.96 270.468 324.975 268.491 323.346 265.358C328.881 267.512 334.379 267.518 338.309 265.535C340.497 264.475 342.217 262.646 343.141 260.396C343.96 258.372 344.908 256.401 345.979 254.496C352.374 243.239 361.118 239.133 367.083 243.21Z" fill="#93BEE5"/>
<path d="M303.871 194.901C303.587 193.313 308.915 191.62 313.057 191.148L313.836 198.151C313.836 198.151 304.85 200.411 303.871 194.901Z" fill="#93BEE5"/>
<path d="M312.195 190.706C310.042 182.664 309.989 169.649 310.726 167.808C311.464 165.967 312.951 166.657 313.836 166.71C314.721 166.763 315.134 164.398 318.125 164.398C318.125 164.398 318.29 161.412 320.361 161.07C320.361 161.07 319.57 156.722 323.057 157.418C323.848 157.577 323.057 162.403 325.063 169.218C325.175 169.601 329.4 166.575 330.373 165.884C331.937 164.757 334.964 164.386 332.993 167.696C331.813 169.708 329.848 172.888 328.479 174.882C325.76 178.957 324.35 183.766 324.438 188.664L312.195 190.706Z" fill="#FFB48F"/>
<path d="M310.319 171.761C310.29 170.431 310.426 169.103 310.726 167.808C311.458 165.973 312.951 166.657 313.836 166.71C314.721 166.763 315.134 164.398 318.125 164.398C318.125 164.398 318.29 161.412 320.361 161.07C320.361 161.07 319.57 156.722 323.057 157.418C323.848 157.577 323.057 162.403 325.063 169.218C325.175 169.601 329.4 166.575 330.373 165.884C331.937 164.757 334.964 164.386 332.993 167.696C332.403 168.699 331.606 169.997 330.798 171.295" stroke="#934735" stroke-width="0.493954" stroke-linecap="round" stroke-linejoin="round"/>
<path d="M318.125 164.398C318.113 164.952 318.146 165.507 318.225 166.055" stroke="#934735" stroke-width="0.493954" stroke-linecap="round" stroke-linejoin="round"/>
<path d="M320.361 161.07C320.615 162.527 320.986 163.878 320.986 163.878" stroke="#934735" stroke-width="0.493954" stroke-linecap="round" stroke-linejoin="round"/>
<path d="M308.408 187.384L309.346 200.6C309.346 200.6 326.533 197.65 326.273 197.266C326.013 196.883 325.565 186.056 325.565 186.056L308.408 187.384Z" fill="white"/>
<path d="M342.132 251.93C342.132 252.272 342.114 252.614 342.079 252.957C342.079 253.216 342.044 253.476 342.02 253.735C342.023 253.786 342.023 253.838 342.02 253.889C342.02 254.184 341.961 254.479 341.926 254.762C341.849 255.423 341.749 256.078 341.625 256.721C341.088 259.866 339.933 262.874 338.226 265.571C336.6 268.188 334.182 270.219 331.323 271.37C328.618 272.363 325.681 272.543 322.874 271.89H322.786C317.134 270.668 313.759 264.373 311.682 257.175C309.788 250.597 308.974 243.263 308.508 238.348C307.517 228.023 303.788 194.96 303.788 194.96C306.425 196.281 330.025 190.771 330.025 190.771C330.025 190.771 334.875 210.005 338.439 227.002C340.35 236.118 341.896 244.596 342.12 249.116C342.15 250.007 342.162 250.956 342.132 251.93Z" fill="#A7CAF0"/>
<path d="M311.67 257.11C309.776 250.532 308.962 243.198 308.496 238.283C307.505 227.958 303.776 194.895 303.776 194.895" stroke="#83ADDF" stroke-width="0.493954" stroke-linecap="round" stroke-linejoin="round"/>
<path d="M330.007 190.706C330.007 190.706 334.857 209.94 338.421 226.938C340.332 236.053 341.878 244.531 342.102 249.051C342.15 250.007 342.161 250.956 342.102 251.9C342.045 253.625 341.848 255.341 341.512 257.033" stroke="#83ADDF" stroke-width="0.493954" stroke-linecap="round" stroke-linejoin="round"/>
<path d="M338.215 265.5C336.588 268.117 334.17 270.149 331.312 271.3C328.606 272.292 325.67 272.472 322.863 271.819H322.774C317.122 270.597 313.747 264.302 311.671 257.104C312.602 258.154 313.603 259.14 314.668 260.054C317.205 262.29 320.109 264.071 323.252 265.317C328.786 267.5 334.285 267.506 338.215 265.5Z" fill="#93BEE5"/>
<path d="M173.41 266.615C170.973 265.17 168.758 263.382 166.831 261.305C160.4 254.668 154.223 244.413 149.656 235.74C146.517 229.781 144.146 224.566 142.972 221.775C142.907 221.628 142.842 221.468 142.777 221.303C142.612 220.896 142.429 220.442 142.246 219.952C138.311 209.674 130.204 181.667 147.32 177.26C154.193 175.49 157.798 178.44 165.215 189.986C166.66 192.234 168.253 194.806 170.041 197.733C181.032 215.734 195.328 245.416 196.667 253.547C198.007 261.677 184.407 272.733 173.41 266.615Z" fill="#35E18A"/>
<path d="M165.221 189.98C162.082 189.909 158.394 191.249 155.096 194.865C152.329 197.904 149.839 202.535 148.181 209.297C147.269 213.344 145.208 217.042 142.246 219.946C138.311 209.668 130.204 181.661 147.32 177.254C154.199 175.496 157.81 178.463 165.221 189.98Z" fill="#35E18A"/>
<path d="M166.831 261.311C160.4 254.674 154.223 244.419 149.656 235.746C146.517 229.787 144.146 224.572 142.971 221.781C142.907 221.634 142.842 221.474 142.777 221.309L151.91 213.385C157.303 213.551 162.023 228.891 157.556 232.743C153.739 236.03 154.016 242.708 161.238 243.953C166.554 244.85 166.866 257.34 166.831 261.311Z" fill="#27BD72"/>
<path d="M123.861 192.877C113.241 192.033 111.931 182.41 112.604 179.407C113.277 176.404 115.206 162.675 115.861 156.238C117.46 140.467 133.944 146.055 133.838 160.515C133.838 161.495 133.767 163.772 133.72 166.528C133.673 169.283 133.649 172.652 133.75 175.549C133.75 175.696 133.75 175.844 133.75 175.991C133.974 181.791 134.499 193.721 123.861 192.877Z" fill="#FEBD9D"/>
<path d="M133.75 175.549C123.366 175.796 123.195 168.775 123.832 163.784L133.72 166.528C133.673 169.33 133.65 172.652 133.75 175.549Z" fill="#F4A789"/>
<path d="M155.096 194.877C154.588 198.889 153.88 202.995 153.226 206.488C152.636 209.727 152.081 212.435 151.815 214.07C151.78 214.294 151.745 214.5 151.721 214.66C151.473 216.43 150.671 224.749 149.656 235.723C147.969 254.013 145.685 279.601 144.346 294.546H75.8352C76.4252 289.997 77.1332 284.616 77.8353 279.164C79.6053 265.323 81.4107 251.069 81.4815 249.163C81.6231 245.434 79.8531 221.875 78.089 209.303C78.0359 208.931 77.9828 208.565 77.9297 208.211C76.2659 196.96 79.9239 191.638 85.3106 189.644C85.7891 189.464 86.2777 189.312 86.7738 189.189C91.8832 187.903 100.155 185.29 109.512 182.487C111.436 181.897 113.406 181.307 115.412 180.717C116.197 180.493 117.07 180.269 118.026 180.05C118.404 180.322 118.805 180.593 119.206 180.865L119.879 181.278C120.009 181.36 120.138 181.437 120.268 181.508C121.035 181.962 121.861 182.399 122.734 182.806C123.053 182.959 123.383 183.107 123.72 183.248C124.044 183.39 124.375 183.525 124.717 183.655H124.746C125.018 183.761 125.301 183.862 125.584 183.962H125.631L126.044 184.104L126.9 184.381C127.572 184.593 128.263 184.782 128.977 184.971C129.726 184.127 130.357 183.337 130.894 182.611L131.366 181.944L131.661 181.502C131.838 181.224 132.003 180.965 132.151 180.711C132.298 180.457 132.475 180.121 132.611 179.873C132.88 179.358 133.117 178.826 133.319 178.28L133.449 177.897C134.517 177.808 135.614 177.726 136.741 177.655C138.145 177.56 139.591 177.484 141.077 177.413C143.076 177.319 145.144 177.252 147.284 177.212C148.834 177.177 150.419 177.159 152.04 177.159C156.299 177.201 156.235 185.803 155.096 194.877Z" fill="#29CC7A"/>
<path d="M153.232 206.5C152.547 210.182 151.934 213.185 151.721 214.689C151.473 216.459 150.671 224.778 149.656 235.752" stroke="#0F8F4F" stroke-width="0.493954" stroke-linecap="round" stroke-linejoin="round"/>
<path d="M155.096 194.877C152.329 197.916 149.839 202.547 148.181 209.308C147.565 211.874 146.518 214.316 145.083 216.53C144.27 217.769 143.318 218.911 142.246 219.934C139.919 222.153 137.016 223.674 133.868 224.324C132.467 224.616 131.037 224.741 129.608 224.696C125.631 224.578 121.348 223.221 116.982 220.418C114.728 218.946 112.631 217.248 110.722 215.35C107.217 211.893 103.913 209.332 100.692 207.651C93.4349 203.88 86.4552 204.5 78.1126 209.32C78.0595 208.949 78.0064 208.583 77.9533 208.229C76.2895 196.977 79.9475 191.656 85.3342 189.661C85.8127 189.482 86.3013 189.33 86.7974 189.207C91.9068 187.921 100.179 185.307 109.536 182.505C111.459 181.915 113.43 181.325 115.436 180.735C116.221 180.511 117.094 180.286 118.05 180.068C118.433 180.339 118.828 180.611 119.23 180.882C121.625 182.407 124.218 183.598 126.935 184.422C127.608 184.635 128.298 184.823 129.012 185.012C129.761 184.169 130.392 183.378 130.929 182.652C131.939 181.331 132.755 179.873 133.354 178.322C133.401 178.186 133.449 178.056 133.484 177.938C134.552 177.85 135.649 177.767 136.776 177.696C138.18 177.602 139.632 177.525 141.119 177.454C143.117 177.36 145.186 177.293 147.325 177.254C148.875 177.218 150.46 177.201 152.081 177.201C156.299 177.201 156.234 185.803 155.096 194.877Z" fill="#35E18A"/>
<path d="M93.2462 222.07C93.2462 222.07 106.35 224.725 101.282 235.31C97.0281 244.189 101.778 248.172 106.474 245.163C111.601 241.876 121.436 245.8 121.436 253.287C121.436 267.447 90.2313 276.728 86.3609 258.06C82.4905 239.393 80.0184 220.07 93.2462 222.07Z" fill="#27BD72"/>
<path d="M145.084 216.53L145.715 217.25L134.93 234.979L134.452 240.195L116.51 222.094L117.011 220.442L118.439 215.722L105.105 202.447C105.211 201.267 108.215 188.405 109.642 182.64L112.539 182.109L119.248 180.888C121.643 182.413 124.235 183.604 126.953 184.428C127.626 184.641 128.316 184.829 129.03 185.018C129.779 184.174 130.41 183.384 130.947 182.658C131.956 181.337 132.773 179.879 133.372 178.328L136.794 177.702C138.198 177.608 139.65 177.531 141.137 177.46L148.217 201.821L141.673 212.654L145.084 216.53Z" fill="#27BB71"/>
<path d="M138.546 181.466C138.175 188.027 137.16 197.632 136.092 206.665C135.301 213.368 134.475 219.751 133.868 224.365C133.278 228.637 132.924 231.363 132.924 231.363C131.69 229.221 130.583 227.008 129.608 224.737C128.428 222.041 127.024 218.766 125.478 214.966C122.304 207.296 118.357 197.438 113.507 185.879L112.533 182.157L119.242 180.935C121.637 182.46 124.229 183.651 126.947 184.475C127.619 184.688 128.31 184.876 129.024 185.065C129.773 184.222 130.404 183.431 130.941 182.705C131.95 181.384 132.767 179.926 133.366 178.375L136.788 177.749L138.546 181.466Z" fill="white"/>
<path d="M134.21 185.59C134.21 185.59 134.003 186.688 133.655 188.057C133.065 190.346 132.086 193.402 130.965 193.402C129.844 193.402 127.856 191.685 126.351 190.287C125.313 189.319 124.54 188.517 124.54 188.517L126.935 184.475C127.608 184.688 128.298 184.877 129.012 185.065C129.761 184.222 130.393 183.431 130.93 182.705L134.21 185.59Z" fill="#A7CAF0"/>
<path d="M136.092 206.665C134.564 219.592 132.924 231.345 132.924 231.345C131.154 228.436 128.705 222.819 125.454 214.949C126.327 210.536 128.109 200.093 129.36 191.249L132.033 190.659C133.177 194.34 134.983 201.904 136.092 206.665Z" fill="#A7CAF0"/>
<path d="M129 185.03L126.339 190.287L124.77 193.402C124.77 193.402 115.33 188.912 109.619 182.664C109.579 182.617 109.545 182.566 109.518 182.511C108.822 180.935 111.554 172.935 113.294 175.549C114.596 177.323 116.193 178.862 118.014 180.098C120.728 182.022 123.734 183.497 126.917 184.464C127.596 184.67 128.31 184.865 129 185.03Z" fill="#00954A"/>
<path d="M135.425 189.213L133.655 188.033L129.012 185.006C129.761 184.163 130.393 183.372 130.929 182.646C132.029 181.22 132.891 179.627 133.484 177.926C133.665 177.426 133.767 176.9 133.785 176.369C134.918 176.396 135.995 176.869 136.782 177.684C137.311 178.291 137.662 179.032 137.797 179.826C138.47 183.354 135.425 189.213 135.425 189.213Z" fill="#00954A"/>
<path d="M129.443 294.569L134.452 240.219L134.93 235.003L132.924 231.345" stroke="#0F8F4F" stroke-width="0.493954" stroke-linecap="round" stroke-linejoin="round"/>
<path d="M232.28 175.731C230.51 173.371 228.881 172.451 227.395 172.327C227.536 172.009 227.672 171.678 227.808 171.336C228.988 168.351 227.867 167.206 226.852 167.507C225.837 167.808 220.739 173.46 220.155 174.587C218.592 177.631 214.255 189.738 213.866 190.865C214.751 198.057 224.244 200.364 224.244 200.364C225.241 197.367 227.164 195.52 229.283 194.057C231.401 192.594 232.398 190.216 234.593 185.555C236.168 182.275 235.967 180.729 232.28 175.731Z" fill="#FEBD9D"/>
<path d="M232.28 175.731C230.51 173.371 228.881 172.451 227.395 172.327C227.536 172.009 227.672 171.678 227.808 171.336C228.988 168.351 227.867 167.206 226.852 167.507C225.837 167.808 220.739 173.46 220.155 174.587" stroke="#EF8A66" stroke-width="0.493954" stroke-linecap="round" stroke-linejoin="round"/>
<path d="M229.619 206.223C230.693 203.756 225.3 201.084 225.3 201.084L222.35 206.524C222.35 206.524 227.353 209.715 229.619 206.223Z" fill="#27BD72"/>
<path d="M210.544 194.789C212.639 191.597 214.32 188.983 214.32 188.983C217.931 193.84 222.328 198.06 227.33 201.467L224.657 206.5C221.451 206.045 218.435 204.71 215.943 202.642C213.451 200.574 211.582 197.855 210.544 194.789Z" fill="white"/>
<path d="M173.415 266.615C179.315 272.515 193.198 273.76 206.096 248.915C218.993 224.07 229.601 206.329 229.601 206.329C229.601 206.329 223.158 207.81 211.6 192.092C211.6 192.092 199.706 208.022 187.693 222.595C173.852 239.381 162.89 256.06 173.415 266.615Z" fill="#35E18A"/>
<path d="M211.6 192.086C211.6 192.086 199.706 208.016 187.694 222.589C183.484 227.575 179.586 232.816 176.023 238.283" stroke="#0F8F4F" stroke-width="0.493954" stroke-linecap="round" stroke-linejoin="round"/>
<path d="M225.359 187.189C225.359 187.189 227.949 181.177 224.492 176.794C224.492 176.794 226.976 173.324 227.395 172.327" stroke="#EF8A66" stroke-width="0.493954" stroke-linecap="round" stroke-linejoin="round"/>
<path d="M225.359 177.124L252.706 114.295" stroke="#DDDDDD" stroke-width="1.97581" stroke-linecap="round" stroke-linejoin="round"/>
<path d="M237.578 179.625C239.867 180.805 235.855 186.705 233.784 186.292C231.135 185.726 235.147 178.398 237.578 179.625Z" fill="#FEBD9D" stroke="#EF8A66" stroke-width="0.493954" stroke-linecap="round" stroke-linejoin="round"/>
<path d="M235.69 175.153C238.522 176.634 233.495 184.387 230.935 183.809C228.374 183.23 232.681 173.578 235.69 175.153Z" fill="#FEBD9D" stroke="#EF8A66" stroke-width="0.493954" stroke-linecap="round" stroke-linejoin="round"/>
<path d="M233.92 172.404C236.61 174.203 230.84 182.434 228.333 181.62C225.825 180.805 231.053 170.51 233.92 172.404Z" fill="#FEBD9D" stroke="#EF8A66" stroke-width="0.493954" stroke-linecap="round" stroke-linejoin="round"/>
<path d="M232.15 166.474C235.141 167.708 231.106 176.894 228.492 176.617C225.878 176.339 228.952 165.159 232.15 166.474Z" fill="#FEBD9D" stroke="#EF8A66" stroke-width="0.493954" stroke-linecap="round" stroke-linejoin="round"/>
<path d="M100.462 215.285C100.397 215.834 100.32 216.394 100.226 216.955C100.173 217.262 100.126 217.545 100.067 217.887C100.008 218.229 99.9486 218.518 99.8778 218.837C99.7716 219.38 99.6536 219.928 99.5179 220.477C99.3114 221.333 99.099 222.247 98.8866 223.162C98.8099 223.474 98.7391 223.793 98.6683 224.111C98.448 225.067 98.2238 226.051 97.9957 227.061C97.919 227.398 97.8423 227.746 97.7656 228.094C97.7184 228.295 97.6771 228.501 97.6299 228.684C97.5237 229.138 97.4234 229.593 97.3231 230.059C96.68 232.961 95.9956 236.035 95.2699 239.174C95.0929 239.947 94.91 240.726 94.7271 241.505C94.674 241.741 94.615 241.983 94.556 242.219L94.1666 243.853C94.1666 243.977 94.1076 244.107 94.0722 244.236C93.9306 244.826 93.789 245.416 93.6415 246.006C93.5294 246.472 93.4114 246.933 93.2934 247.399C93.1754 247.865 93.0987 248.178 92.9925 248.579C92.7034 249.694 92.4025 250.815 92.1075 251.918L91.7535 253.21C90.9511 256.072 90.1133 258.851 89.2224 261.47C89.1044 261.818 88.9805 262.166 88.8625 262.503C88.5616 263.358 88.2725 264.196 87.9421 265.01C87.8182 265.335 87.6943 265.659 87.5645 265.978C87.1082 267.122 86.6421 268.214 86.1662 269.252C85.9125 269.795 85.6588 270.326 85.3992 270.834C85.3343 270.969 85.2635 271.105 85.1927 271.235C84.9449 271.707 84.6971 272.161 84.4434 272.598C84.1897 273.034 83.9596 273.424 83.7177 273.813V273.854C83.4581 274.25 83.2044 274.633 82.9389 274.999C82.4086 275.738 81.8165 276.431 81.1689 277.07C81.0804 277.164 80.986 277.253 80.8916 277.335C80.3584 277.846 79.7639 278.288 79.1216 278.651L78.7794 278.822H78.7381C78.5965 278.889 78.4549 278.948 78.3133 278.999C78.1658 279.058 78.0183 279.105 77.8649 279.153C66.9735 282.315 60.808 276.149 59.7991 266.945C59.7135 266.097 59.6741 265.244 59.6811 264.391C59.6811 257.435 61.7343 245.245 64.2772 234.147C65.7227 227.84 67.3275 221.887 68.8025 217.444L69.5105 215.297C73.6405 202.73 77.1156 190.93 85.3402 189.638C93.3701 188.381 99.8129 196.039 100.68 207.627C100.862 210.181 100.789 212.746 100.462 215.285Z" fill="#35E18A"/>
<path d="M77.8353 279.188C77.9874 279.145 78.1371 279.094 78.2837 279.035C78.4253 278.984 78.5669 278.925 78.7085 278.858H78.7498C78.8673 278.808 78.9816 278.751 79.092 278.687C79.7343 278.323 80.3289 277.881 80.862 277.371C80.9564 277.288 81.0449 277.2 81.1393 277.105C81.7869 276.466 82.379 275.774 82.9093 275.034C83.1748 274.675 83.4344 274.291 83.6881 273.89V273.849C83.9359 273.459 84.1778 273.058 84.4138 272.633C84.6695 272.197 84.9173 271.742 85.1572 271.27C85.228 271.14 85.2988 271.005 85.3637 270.869C85.6233 270.362 85.877 269.831 86.1307 269.288C86.6106 268.249 87.0767 267.158 87.529 266.013C87.6588 265.695 87.7827 265.37 87.9066 265.046C88.2193 264.232 88.4966 263.394 88.827 262.538C88.945 262.196 89.0689 261.854 89.1869 261.506C90.0778 258.886 90.9156 256.107 91.718 253.246C91.836 252.821 91.954 252.39 92.072 251.954C92.3729 250.85 92.662 249.729 92.957 248.614C93.0632 248.219 93.1576 247.83 93.2579 247.434C93.3582 247.039 93.4939 246.508 93.606 246.042C93.7535 245.452 93.8951 244.862 94.0367 244.272C94.0721 244.142 94.1016 244.012 94.1311 243.888C94.2609 243.34 94.3966 242.797 94.5205 242.254C94.5795 242.018 94.6385 241.776 94.6916 241.54C94.8745 240.761 95.0574 239.983 95.2344 239.21C95.9601 236.071 96.6445 232.997 97.2876 230.094C97.3938 229.634 97.4941 229.174 97.5944 228.719C97.6416 228.513 97.6829 228.306 97.7301 228.129L97.9602 227.097C98.1884 226.074 98.4126 225.091 98.6328 224.147C98.7036 223.828 98.7744 223.51 98.8511 223.197C99.0635 222.265 99.2759 221.368 99.4824 220.513C99.6181 219.964 99.7361 219.415 99.8423 218.872C99.9131 218.554 99.978 218.235 100.031 217.922C100.084 217.61 100.143 217.297 100.19 216.99C100.285 216.4 100.362 215.869 100.426 215.321C100.426 215.191 100.462 215.061 100.474 214.931" stroke="#0F8F4F" stroke-width="0.493954" stroke-linecap="round" stroke-linejoin="round"/>
<path d="M100.668 207.68C93.4114 203.91 86.4317 204.529 78.0891 209.35C75.0726 211.13 72.1951 213.136 69.481 215.35C73.611 202.783 77.0861 190.983 85.3107 189.691C93.3406 188.411 99.7834 196.069 100.668 207.68Z" fill="#35E18A"/>
<path d="M84.4434 272.61C84.2074 273.034 83.9655 273.436 83.7177 273.825V273.866C83.464 274.267 83.2044 274.651 82.9389 275.011C82.4086 275.75 81.8165 276.443 81.1689 277.082C81.0804 277.176 80.986 277.265 80.8916 277.347C80.3584 277.858 79.7639 278.299 79.1216 278.663L78.7794 278.834H78.7381C78.5965 278.901 78.4549 278.96 78.3133 279.011C78.1658 279.07 78.0183 279.117 77.8649 279.164C66.9735 282.327 60.808 276.161 59.7991 266.957C59.7135 266.109 59.6741 265.256 59.6811 264.403C59.6811 257.447 61.7343 245.257 64.2772 234.159C70.2539 237.664 71.8882 245.263 68.9087 253.535C68.2477 255.357 67.4181 257.112 66.4307 258.78C59.8699 269.955 73.3337 277.984 84.4434 272.61Z" fill="#27BD72"/>
<path d="M129.991 137.287C132.64 135.659 135.986 135.405 135.856 146.816L129.991 137.287Z" fill="#BF8228"/>
<path d="M132.587 136.443C131.803 138.195 130.777 139.828 129.537 141.293L130.257 154.35L116.097 154.822L113.89 154.899C112.598 150.326 112.403 147.229 111.212 146.444C110.912 146.194 110.703 145.852 110.617 145.471C110.532 145.09 110.575 144.692 110.74 144.338C111.182 143.087 109.719 143.789 108.775 142.219C108.25 141.346 108.096 137.718 112.044 138.16C110.751 135.635 112.752 133.611 117.418 133.788C116.351 133.275 116.056 131.517 118.646 131.393C121.778 131.207 124.918 131.207 128.05 131.393C129.268 131.494 130.435 131.927 131.425 132.644C132.032 133.042 132.48 133.64 132.692 134.334C132.905 135.028 132.867 135.774 132.587 136.443Z" fill="#BF8228"/>
<path d="M132.587 136.443C131.803 138.195 130.776 139.828 129.537 141.293L130.257 154.35L116.097 154.822C116.557 147.294 115.507 144.762 115.005 142.432C114.504 140.101 115.448 137.028 118.416 137.712C121.383 138.396 126.28 136.656 125.46 135.033C124.87 133.853 127.33 131.287 131.425 132.632C132.034 133.031 132.485 133.631 132.697 134.327C132.909 135.024 132.871 135.773 132.587 136.443Z" fill="#B57724"/>
<path d="M117.412 133.794L122.917 134.089" stroke="#9B621F" stroke-width="0.493954" stroke-linecap="round" stroke-linejoin="round"/>
<path d="M112.038 138.16L118.002 138.75" stroke="#9B621F" stroke-width="0.493954" stroke-linecap="round" stroke-linejoin="round"/>
<path d="M133.431 168.858C124.422 170.628 116.958 157.825 116.958 157.825C112.763 158.675 111.212 154.639 112.457 151.925C112.589 151.632 112.751 151.353 112.94 151.093C113.282 150.569 113.772 150.159 114.348 149.917C114.924 149.674 115.56 149.609 116.174 149.73C117.347 150.03 118.395 150.695 119.165 151.63C120.014 152.562 121 151.506 120.304 149.86C119.607 148.214 118.905 142.544 119.761 141.382C120.616 140.219 128.392 138.62 130.723 138.502C130.874 138.493 131.026 138.493 131.177 138.502C131.285 138.52 131.388 138.56 131.478 138.62C131.968 138.989 132.389 139.44 132.723 139.954C133.006 140.331 133.313 140.78 133.602 141.275C134.431 142.639 135.183 144.047 135.856 145.494C136.098 146.007 136.34 146.532 136.57 147.063C136.8 147.594 136.989 148.037 137.16 148.527C137.496 149.347 137.797 150.161 138.063 150.957C138.275 151.589 138.464 152.208 138.623 152.798C138.623 152.834 138.623 152.869 138.653 152.904C140.204 158.71 141.06 167.348 133.431 168.858Z" fill="#FEBD9D"/>
<path d="M127.956 153.748C129.809 154.073 132.599 153.878 133.732 152.775C133.732 152.775 134.157 156.775 131.761 157.105C128.988 157.489 127.956 153.748 127.956 153.748Z" fill="white" stroke="#EF8A66" stroke-width="0.493954" stroke-linecap="round" stroke-linejoin="round"/>
<path d="M135.685 164.02C135.987 164.983 135.896 166.027 135.431 166.923" stroke="#EF8A66" stroke-width="0.493954" stroke-linecap="round" stroke-linejoin="round"/>
<path d="M116.964 157.825C117.72 157.622 118.428 157.271 119.047 156.792" stroke="#EF8A66" stroke-width="0.493954" stroke-linecap="round" stroke-linejoin="round"/>
<path d="M114.15 153.335C115.489 151.565 118.062 152.68 118.77 154.48" stroke="#EF8A66" stroke-width="0.493954" stroke-linecap="round" stroke-linejoin="round"/>
<path d="M118.41 153.795C115.631 151.707 114.657 156.421 117.902 155.748" stroke="#EF8A66" stroke-width="0.493954" stroke-linecap="round" stroke-linejoin="round"/>
<path d="M129.672 143.724C129.59 144.957 131.283 146.951 132.841 147.429C134.398 147.907 134.882 148.338 134.475 149.618" stroke="#EF8A66" stroke-width="0.493954" stroke-linecap="round" stroke-linejoin="round"/>
<path d="M122.162 143.777C122.398 144.756 127.732 143.612 127.012 141.789C126.292 139.966 121.767 142.19 122.162 143.777Z" fill="#BF8228"/>
<path d="M129.348 140.621C129.277 141.801 133.968 141.765 133.95 140.886C133.932 140.007 129.49 138.479 129.348 140.621Z" fill="#BF8228"/>
<path d="M126.487 146.432C126.487 146.597 126.535 146.757 126.627 146.894C126.718 147.031 126.848 147.138 127 147.201C127.152 147.264 127.32 147.28 127.481 147.248C127.642 147.216 127.79 147.137 127.907 147.02C128.023 146.904 128.102 146.756 128.135 146.594C128.167 146.433 128.15 146.266 128.087 146.114C128.024 145.962 127.918 145.832 127.781 145.74C127.644 145.649 127.483 145.6 127.319 145.6C127.098 145.6 126.886 145.688 126.73 145.844C126.574 146 126.487 146.211 126.487 146.432Z" fill="#683F1D"/>
<path d="M132.924 146.054C133.383 146.054 133.755 145.682 133.755 145.223C133.755 144.763 133.383 144.391 132.924 144.391C132.464 144.391 132.092 144.763 132.092 145.223C132.092 145.682 132.464 146.054 132.924 146.054Z" fill="#683F1D"/>
<path d="M126.835 152.887C126.321 154.037 124.658 154.421 123.112 153.736C121.566 153.052 120.752 151.559 121.236 150.409C121.719 149.258 123.413 148.881 124.958 149.565C126.504 150.249 127.342 151.736 126.835 152.887Z" fill="#F4AF90"/>
<path d="M138.67 152.881C137.419 153.435 136.086 153.247 135.484 152.35C134.782 151.305 135.348 149.695 136.753 148.751C136.889 148.659 137.031 148.577 137.177 148.503C137.514 149.323 137.815 150.137 138.08 150.934C138.292 151.565 138.481 152.185 138.641 152.775C138.652 152.81 138.658 152.845 138.67 152.881Z" fill="#F4AF90"/>
<path d="M155.078 247.729C161.397 246.915 163.598 245.487 166.046 244.549C168.495 243.611 170.33 243.735 170.613 245.139C170.613 245.139 173.055 244.048 173.876 244.484C175.097 245.139 174.33 247.434 170.619 249.027C166.908 250.62 155.934 255.128 153.898 254.514C151.863 253.901 150.317 249.983 155.078 247.729Z" fill="#FEBD9D" stroke="#EF8A66" stroke-width="0.493954" stroke-linecap="round" stroke-linejoin="round"/>
<path d="M138.989 266.934C138.989 266.934 153.479 260.373 157.037 258.379C160.595 256.384 171.569 251.34 172.631 249.57C173.693 247.8 171.964 247.629 169.84 248.39C167.716 249.151 159.338 251.965 158.535 251.93C157.733 251.895 153.225 251.93 153.225 251.93C153.591 248.39 159.456 245.965 160.305 244.26C161.249 242.425 158.577 242.49 156.889 242.991C155.202 243.493 148.376 245.871 146.688 246.809C145.001 247.747 143.496 249.894 139.98 250.42L138.989 266.934Z" fill="#FEBD9D"/>
<path d="M167.026 253.222C169.822 251.735 172.165 250.343 172.631 249.576C173.693 247.806 171.964 247.635 169.84 248.396C167.716 249.157 159.338 251.971 158.536 251.936C157.733 251.901 153.226 251.936 153.226 251.936C153.591 248.396 159.456 245.971 160.306 244.266C161.25 242.431 158.577 242.496 156.89 242.997C155.904 243.292 153.149 244.225 150.7 245.139" stroke="#EF8A66" stroke-width="0.493954" stroke-linecap="round" stroke-linejoin="round"/>
<path d="M159.155 249.57C162.99 248.337 169.462 245.723 170.613 245.157" stroke="#EF8A66" stroke-width="0.493954" stroke-linecap="round" stroke-linejoin="round"/>
<path d="M153.225 251.93C153.147 252.373 153.147 252.826 153.225 253.269" stroke="#EF8A66" stroke-width="0.493954" stroke-linecap="round" stroke-linejoin="round"/>
<path d="M133.508 250.443H140.004V269.064L134.18 270.185L133.508 250.443Z" fill="white"/>
<path d="M136.092 271.636C136.251 271.789 124.605 274.545 110.976 277.276C96.0427 280.268 78.7321 283.235 71.9707 282.722C62.5307 282.008 58.1529 272.356 59.6515 264.432C60.1304 261.545 61.5589 258.899 63.7107 256.915C65.2639 255.556 67.0045 254.428 68.8791 253.564C70.9553 252.608 73.1323 251.888 75.3691 251.417H75.4281L76.1715 251.263L77.1568 251.08C77.5698 251.01 77.9828 250.945 78.4017 250.886L78.6672 250.85C78.9209 250.809 79.1687 250.779 79.4224 250.75L80.2366 250.656H80.272L81.0567 250.579C81.3281 250.549 81.6054 250.526 81.8768 250.508L82.691 250.449C83.2397 250.408 83.7825 250.378 84.3253 250.361H84.9153H85.2575L86.8151 250.325H87.5408C88.1662 250.325 88.7857 250.325 89.3934 250.325H90.4613H90.5203L92.5499 250.372C93.7299 250.372 94.8745 250.431 95.9483 250.461H97.1283H99.5591C108.58 250.355 134.912 249.594 134.912 249.594C134.912 249.594 135.761 271.311 136.092 271.636Z" fill="#35E18A"/>
<path d="M134.93 249.57C134.93 249.57 108.598 250.331 99.5767 250.443C93.5705 250.514 83.9889 249.517 75.3867 251.405" stroke="#0F8F4F" stroke-width="0.493954" stroke-linecap="round" stroke-linejoin="round"/>
<path d="M110.976 277.3C96.0427 280.291 78.7321 283.259 71.9707 282.746C62.5307 282.032 58.1529 272.379 59.6515 264.456C60.1304 261.568 61.5589 258.923 63.7107 256.939C65.2639 255.58 67.0045 254.451 68.8791 253.588C68.2181 255.41 67.3885 257.166 66.4011 258.833C59.858 269.99 73.3336 278.02 84.4433 272.645C84.8893 272.437 85.3245 272.206 85.7472 271.955C94.9158 266.491 106.798 274.167 110.976 277.3Z" fill="#27BD72"/>
<path d="M135.29 271.907C132.434 272.68 122.404 274.987 110.976 277.276C96.0427 280.268 78.7321 283.235 71.9707 282.722" stroke="#0F8F4F" stroke-width="0.493954" stroke-linecap="round" stroke-linejoin="round"/>
</svg>
