<svg width="1732" height="382" viewBox="0 0 1732 382" fill="none" xmlns="http://www.w3.org/2000/svg">
<path d="M800.849 83.7581C588.765 54.5791 0 381.507 0 381.507L262 381.507H1628H1731.5C1731.5 381.507 1511.88 196.049 1425.99 193.115C1341.99 190.245 1222.51 264.197 1222.51 264.197C1222.51 264.197 977.964 108.126 800.849 83.7581Z" fill="#5865F2"/>
<path d="M1407 40.0068C1421.88 40.3211 1443 55.0068 1443 55.0068H1283C1283 55.0068 1322.09 43.4314 1346.5 48.5068C1354.72 50.2168 1367.5 52.0068 1367.5 52.0068C1367.5 52.0068 1390.99 39.6688 1407 40.0068Z" fill="#5865F2"/>
<path d="M457 0.00683594C471.884 0.321137 493 15.0068 493 15.0068H333C333 15.0068 372.094 3.43139 396.5 8.50683C404.723 10.2168 417.5 12.0068 417.5 12.0068C417.5 12.0068 440.991 -0.331223 457 0.00683594Z" fill="#5865F2"/>
<path d="M1057.5 98.5068C1033.5 98.5068 1019 127.514 1019 127.514H1179C1179 127.514 1152.91 112.431 1128.5 117.507C1120.28 119.217 1094.5 124.514 1094.5 124.514C1094.5 124.514 1083.62 98.5069 1057.5 98.5068Z" fill="#5865F2"/>
</svg>
