<svg width="114" height="33" viewBox="0 0 114 33" fill="none" xmlns="http://www.w3.org/2000/svg">
<g clip-path="url(#clip0_86_149)">
<path d="M0 16.5C0 7.66344 7.16344 0.5 16 0.5H37C45.8366 0.5 53 7.66344 53 16.5V32.5H16C7.16344 32.5 0 25.3366 0 16.5Z" fill="white"/>
<path d="M37 6.5H16C10.4772 6.5 6 10.9772 6 16.5C6 22.0228 10.4772 26.5 16 26.5H37C42.5228 26.5 47 22.0228 47 16.5C47 10.9772 42.5228 6.5 37 6.5Z" fill="#E4E4E4"/>
<path d="M16 21.5C18.7614 21.5 21 19.2614 21 16.5C21 13.7386 18.7614 11.5 16 11.5C13.2386 11.5 11 13.7386 11 16.5C11 19.2614 13.2386 21.5 16 21.5Z" fill="black"/>
<path d="M14 15.5C14.5523 15.5 15 15.0523 15 14.5C15 13.9477 14.5523 13.5 14 13.5C13.4477 13.5 13 13.9477 13 14.5C13 15.0523 13.4477 15.5 14 15.5Z" fill="white"/>
<path d="M38 21.5C40.7614 21.5 43 19.2614 43 16.5C43 13.7386 40.7614 11.5 38 11.5C35.2386 11.5 33 13.7386 33 16.5C33 19.2614 35.2386 21.5 38 21.5Z" fill="black"/>
<path d="M36 15.5C36.5523 15.5 37 15.0523 37 14.5C37 13.9477 36.5523 13.5 36 13.5C35.4477 13.5 35 13.9477 35 14.5C35 15.0523 35.4477 15.5 36 15.5Z" fill="white"/>
</g>
<path d="M76.74 17.3C77.5533 17.4733 78.2067 17.88 78.7 18.52C79.1933 19.1467 79.44 19.8667 79.44 20.68C79.44 21.8533 79.0267 22.7867 78.2 23.48C77.3867 24.16 76.2467 24.5 74.78 24.5H68.24V10.46H74.56C75.9867 10.46 77.1 10.7867 77.9 11.44C78.7133 12.0933 79.12 12.98 79.12 14.1C79.12 14.9267 78.9 15.6133 78.46 16.16C78.0333 16.7067 77.46 17.0867 76.74 17.3ZM71.66 16.14H73.9C74.46 16.14 74.8867 16.02 75.18 15.78C75.4867 15.5267 75.64 15.16 75.64 14.68C75.64 14.2 75.4867 13.8333 75.18 13.58C74.8867 13.3267 74.46 13.2 73.9 13.2H71.66V16.14ZM74.18 21.74C74.7533 21.74 75.1933 21.6133 75.5 21.36C75.82 21.0933 75.98 20.7133 75.98 20.22C75.98 19.7267 75.8133 19.34 75.48 19.06C75.16 18.78 74.7133 18.64 74.14 18.64H71.66V21.74H74.18ZM86.5036 24.66C85.4103 24.66 84.4236 24.4267 83.5436 23.96C82.6769 23.4933 81.9903 22.8267 81.4836 21.96C80.9903 21.0933 80.7436 20.08 80.7436 18.92C80.7436 17.7733 80.9969 16.7667 81.5036 15.9C82.0103 15.02 82.7036 14.3467 83.5836 13.88C84.4636 13.4133 85.4503 13.18 86.5436 13.18C87.6369 13.18 88.6236 13.4133 89.5036 13.88C90.3836 14.3467 91.0769 15.02 91.5836 15.9C92.0903 16.7667 92.3436 17.7733 92.3436 18.92C92.3436 20.0667 92.0836 21.08 91.5636 21.96C91.0569 22.8267 90.3569 23.4933 89.4636 23.96C88.5836 24.4267 87.5969 24.66 86.5036 24.66ZM86.5036 21.7C87.1569 21.7 87.7103 21.46 88.1636 20.98C88.6303 20.5 88.8636 19.8133 88.8636 18.92C88.8636 18.0267 88.6369 17.34 88.1836 16.86C87.7436 16.38 87.1969 16.14 86.5436 16.14C85.8769 16.14 85.3236 16.38 84.8836 16.86C84.4436 17.3267 84.2236 18.0133 84.2236 18.92C84.2236 19.8133 84.4369 20.5 84.8636 20.98C85.3036 21.46 85.8503 21.7 86.5036 21.7ZM99.238 24.66C98.1446 24.66 97.158 24.4267 96.278 23.96C95.4113 23.4933 94.7246 22.8267 94.218 21.96C93.7246 21.0933 93.478 20.08 93.478 18.92C93.478 17.7733 93.7313 16.7667 94.238 15.9C94.7446 15.02 95.438 14.3467 96.318 13.88C97.198 13.4133 98.1846 13.18 99.278 13.18C100.371 13.18 101.358 13.4133 102.238 13.88C103.118 14.3467 103.811 15.02 104.318 15.9C104.825 16.7667 105.078 17.7733 105.078 18.92C105.078 20.0667 104.818 21.08 104.298 21.96C103.791 22.8267 103.091 23.4933 102.198 23.96C101.318 24.4267 100.331 24.66 99.238 24.66ZM99.238 21.7C99.8913 21.7 100.445 21.46 100.898 20.98C101.365 20.5 101.598 19.8133 101.598 18.92C101.598 18.0267 101.371 17.34 100.918 16.86C100.478 16.38 99.9313 16.14 99.278 16.14C98.6113 16.14 98.058 16.38 97.618 16.86C97.178 17.3267 96.958 18.0133 96.958 18.92C96.958 19.8133 97.1713 20.5 97.598 20.98C98.038 21.46 98.5846 21.7 99.238 21.7ZM113.112 21.6V24.5H111.372C110.132 24.5 109.166 24.2 108.472 23.6C107.779 22.9867 107.432 21.9933 107.432 20.62V16.18H106.072V13.34H107.432V10.62H110.852V13.34H113.092V16.18H110.852V20.66C110.852 20.9933 110.932 21.2333 111.092 21.38C111.252 21.5267 111.519 21.6 111.892 21.6H113.112Z" fill="white"/>
<defs>
<clipPath id="clip0_86_149">
<rect width="57" height="32" fill="white" transform="translate(0 0.5)"/>
</clipPath>
</defs>
</svg>
