<svg width="329" height="276" viewBox="0 0 329 276" fill="none" xmlns="http://www.w3.org/2000/svg">
<path d="M333.177 56.1057H110.224C106.117 56.1057 102.787 59.4406 102.787 63.5545V198.892C102.787 203.006 106.117 206.341 110.224 206.341H333.177C337.285 206.341 340.614 203.006 340.614 198.892V63.5545C340.614 59.4406 337.285 56.1057 333.177 56.1057Z" stroke="#EDEDED" stroke-width="0.991343" stroke-linecap="round" stroke-linejoin="round"/>
<path d="M326.128 63.111H117.279C113.171 63.111 109.841 66.4459 109.841 70.5597V191.876C109.841 195.99 113.171 199.325 117.279 199.325H326.128C330.236 199.325 333.565 195.99 333.565 191.876V70.5597C333.565 66.4459 330.236 63.111 326.128 63.111Z" stroke="#DDDDDD" stroke-width="0.991343" stroke-linecap="round" stroke-linejoin="round"/>
<path d="M110.12 162.021C102.262 162.968 101.294 157.803 98.4336 150.459C95.5735 143.114 96.0766 136.218 94.1353 124.925C91.8658 111.78 107.807 111.484 111.088 129.914C111.225 130.659 111.372 131.524 111.531 132.472C111.996 135.139 112.581 138.497 113.423 141.827C113.636 142.665 113.866 143.503 114.106 144.33C115.692 149.637 117.995 161.068 110.12 162.021Z" fill="#FFC619"/>
<path d="M113.445 141.827C102.869 145.113 101.299 136.448 101.414 132.905L111.542 132.472C112.018 135.123 112.603 138.48 113.445 141.827Z" fill="#F8BA00"/>
<path d="M151.479 196.63C151.068 197.022 150.634 197.388 150.177 197.725C149.833 197.999 149.417 198.311 148.936 198.634L148.526 198.914L148.056 199.215C147.394 199.631 146.645 200.069 145.803 200.497C145.409 200.699 144.993 200.907 144.556 201.099C144.331 201.203 144.102 201.307 143.861 201.406L143.145 201.702C142.921 201.789 142.696 201.877 142.461 201.959C142.226 202.041 141.914 202.167 141.597 202.266C141.28 202.364 141.05 202.447 140.777 202.529C140.504 202.611 140.23 202.698 139.929 202.775L139.164 202.978L138.956 203.027L138.168 203.202C137.54 203.345 136.894 203.46 136.222 203.558C135.948 203.608 135.675 203.646 135.385 203.679C135.281 203.679 135.177 203.706 135.068 203.712C134.778 203.75 134.488 203.777 134.193 203.805V203.86C134.346 205.371 136.008 233.983 136.435 241.503L136.473 242.171C136.473 242.325 136.473 242.462 136.473 242.582C115.463 242.035 94.5294 241.832 74.3614 241.887C73.9457 234.361 73.1966 220.455 72.4692 206.286C71.4576 186.432 70.4951 166.09 70.6045 162.136V162.075C70.8341 154.462 69.7678 148.761 76.2589 146.247C78.5229 145.37 81.7275 144.877 86.1898 144.834H87.0484H87.9945H88.9897C89.3288 144.834 89.646 144.834 89.9522 144.801H90.6248L91.2647 144.768H91.8115L92.6974 144.719L93.3208 144.675C93.6489 144.675 93.9442 144.631 94.2177 144.609H94.3872L94.6989 144.582L95.1419 144.532H95.295C95.5957 144.494 95.8418 144.456 96.0223 144.423C96.2028 144.39 96.2848 144.374 96.3832 144.352C96.489 144.332 96.5919 144.299 96.6895 144.253C98.1222 148.218 102.114 155.47 108.808 154.555C115.501 153.641 114.938 146.17 113.609 142.9L113.735 143.01L113.926 143.163L114.347 143.47C114.408 143.514 114.473 143.563 114.544 143.607L114.768 143.755L114.987 143.892L115.288 144.072C115.545 144.215 115.835 144.352 116.103 144.472L116.387 144.587C116.579 144.653 116.77 144.702 116.934 144.746C117.137 144.787 117.345 144.807 117.552 144.806C117.617 144.812 117.683 144.812 117.749 144.806C117.82 144.806 117.886 144.806 117.951 144.773C118.996 144.51 121.932 143.996 125.952 145.573C128.516 146.586 131.524 148.454 134.767 151.795C136.867 154.099 138.644 156.679 140.05 159.463C145.83 170.116 150.123 186.339 151.479 196.63Z" fill="#FF78B9"/>
<path d="M140.088 159.37C136.572 158.868 132.99 159.546 129.9 161.298C127.472 162.774 125.561 164.969 124.431 167.58C118.788 180.045 104.001 184.728 94.119 170.932C92.7456 168.977 91.155 167.186 89.3777 165.592C84.0678 160.925 77.8938 159.638 70.5659 162.19V162.13C70.7956 154.517 69.7292 148.815 76.2204 146.301C78.4844 145.425 81.689 144.932 86.1513 144.888C95.6119 144.79 96.6673 144.182 96.6673 144.182C98.1001 148.147 102.092 155.399 108.786 154.484C115.479 153.569 114.916 146.099 113.587 142.829C113.735 142.955 116.321 145.107 117.962 144.697C119.006 144.434 121.943 143.919 125.962 145.496C128.527 146.51 131.535 148.377 134.778 151.718C136.886 154.016 138.672 156.59 140.088 159.37Z" fill="#FA5EA9"/>
<path d="M149.68 243.02C145.272 242.878 140.866 242.75 136.462 242.637V242.226L136.424 241.558L134.182 203.914V203.86L149.68 193.289C149.887 194.669 150.062 196.17 150.226 197.758C151.626 213.992 149.92 239.515 149.68 243.02Z" fill="#FFC619"/>
<path d="M151.478 196.63C151.478 196.63 145.294 202.879 134.16 203.849C133.547 185.868 131.824 171.633 129.911 161.298C128.593 154.15 127.176 148.859 126 145.496C128.565 146.51 131.573 148.377 134.816 151.718C136.916 154.023 138.693 156.602 140.098 159.386C145.829 170.116 150.122 186.339 151.478 196.63Z" fill="#FF78B9"/>
<path d="M140.088 159.37C136.573 158.868 132.99 159.546 129.9 161.298C128.582 154.15 127.166 148.859 125.99 145.496C128.555 146.51 131.562 148.377 134.805 151.718C136.904 154.017 138.681 156.591 140.088 159.37Z" fill="#FA5EA9"/>
<path d="M134.149 203.849C133.537 185.868 131.814 171.633 129.9 161.298" stroke="#F7AD2B" stroke-width="0.372438" stroke-linecap="round" stroke-linejoin="round"/>
<path d="M96.3505 142.21C93.0693 143.503 93.0693 144.949 93.0693 146.521C93.0693 148.093 96.0114 156.67 101.764 162.76C102.885 163.949 104.553 156.615 106.199 156.188C107.845 155.76 109.322 156.516 110.087 156.407C110.853 156.297 112.882 154.282 114.2 155.196C115.518 156.111 118.307 160.673 118.854 160.794C119.4 160.914 119.455 149.988 118.197 146.148C117.868 145.063 117.249 144.089 116.408 143.329C115.567 142.57 114.535 142.054 113.423 141.838C113.423 141.838 114.331 149.769 111.679 152.124C106.167 157.031 100.496 150.847 96.3505 142.21Z" fill="white"/>
<path d="M94.7918 120.483C92.8724 119.771 89.9303 121.578 90.3295 124.574C90.7287 127.57 95.1528 128.551 97.3402 126.814C96.2446 124.812 95.3892 122.687 94.7918 120.483Z" fill="#FFC619"/>
<path d="M91.8388 124.771C91.6747 123.484 93.2278 121.452 95.6667 123.38" stroke="#934735" stroke-width="0.372438" stroke-linecap="round" stroke-linejoin="round"/>
<path d="M94.6824 125.615C92.1395 125.549 92.8887 122.805 95.1855 123.046" stroke="#934735" stroke-width="0.372438" stroke-linecap="round" stroke-linejoin="round"/>
<path d="M114.67 123.55L113.292 123.95L99.7898 127.86C99.7898 127.86 99.4289 127.51 98.882 126.902C97.0986 124.936 95.6784 122.668 94.6877 120.203C94.3904 119.408 94.1831 118.581 94.0697 117.739C93.4025 112.497 98.8438 102.677 107.9 107.212C110.825 110.005 112.488 114.967 112.914 116.424L113.057 116.917C113.576 118.862 114.67 123.55 114.67 123.55Z" fill="#FFC619"/>
<path d="M104.996 121.693C104.996 123.092 104.441 124.434 103.454 125.423C102.466 126.412 101.127 126.968 99.7299 126.968C99.4388 126.968 99.1481 126.946 98.8604 126.902C97.077 124.936 95.6567 122.668 94.666 120.203C95.0232 118.984 95.8073 117.935 96.8744 117.248C97.9416 116.561 99.2202 116.283 100.476 116.464C101.731 116.645 102.88 117.274 103.71 118.234C104.54 119.195 104.997 120.423 104.996 121.693Z" fill="#F8BA00"/>
<path d="M114.67 123.55L113.292 123.95C112.72 123.568 112.248 123.055 111.913 122.453C111.579 121.852 111.393 121.179 111.37 120.491C111.347 119.803 111.488 119.12 111.781 118.497C112.075 117.875 112.512 117.331 113.057 116.912C113.576 118.862 114.67 123.55 114.67 123.55Z" fill="#F8BA00"/>
<path d="M104.777 116.408C104.776 116.547 104.816 116.683 104.893 116.799C104.969 116.916 105.079 117.006 105.207 117.06C105.335 117.114 105.476 117.128 105.612 117.101C105.749 117.074 105.874 117.007 105.972 116.909C106.07 116.811 106.137 116.685 106.164 116.549C106.191 116.412 106.176 116.271 106.123 116.143C106.069 116.014 105.978 115.905 105.863 115.828C105.747 115.752 105.611 115.711 105.472 115.712C105.38 115.712 105.29 115.73 105.206 115.765C105.122 115.8 105.045 115.851 104.981 115.916C104.916 115.981 104.865 116.057 104.83 116.142C104.795 116.226 104.777 116.317 104.777 116.408Z" fill="#683F1D"/>
<path d="M109.82 115.712C109.82 115.851 109.861 115.987 109.938 116.102C110.015 116.218 110.125 116.308 110.253 116.361C110.381 116.413 110.522 116.427 110.658 116.399C110.794 116.372 110.919 116.305 111.016 116.206C111.114 116.107 111.18 115.982 111.207 115.846C111.233 115.709 111.219 115.568 111.165 115.44C111.111 115.312 111.02 115.203 110.904 115.127C110.789 115.05 110.653 115.01 110.514 115.011C110.422 115.011 110.332 115.029 110.247 115.065C110.162 115.1 110.086 115.152 110.021 115.217C109.957 115.282 109.905 115.359 109.871 115.444C109.836 115.529 109.819 115.621 109.82 115.712Z" fill="#683F1D"/>
<path d="M115.813 132.017C112.865 139.587 105.526 137.39 102.251 135.265C98.9749 133.14 97.3289 127.685 95.0102 123.955C91.9752 119.097 92.0736 114.327 93.6869 110.81C94.6971 108.431 96.5971 106.541 98.9804 105.547C104.11 103.668 107.905 107.19 107.905 107.19C107.801 110.476 101.529 109.6 100.342 109.244C97.4164 108.384 96.2297 111.517 95.8852 113.993C95.4805 116.868 95.918 119.858 97.4875 122.055C99.057 124.251 100.222 124.793 101.075 123.698C101.928 122.602 103.552 121.359 107.697 120.691C111.842 120.023 113.746 122.005 113.746 122.005C113.746 121.261 112.958 116.715 112.914 116.435C114.418 119.099 115.508 121.976 116.146 124.968C116.6 127.318 116.66 129.821 115.813 132.017Z" fill="#FFEACC"/>
<path d="M115.813 132.017C112.865 139.587 105.526 137.39 102.251 135.265C98.9749 133.14 97.3289 127.685 95.0102 123.955C91.9752 119.097 92.0736 114.327 93.6869 110.81C93.5775 120.171 100.08 130.528 104.077 132.434C107.829 134.23 114.588 133.633 116.135 124.974C116.6 127.318 116.66 129.821 115.813 132.017Z" fill="#EDD6B7"/>
<path d="M105.472 122.876C107.151 122.978 108.835 122.978 110.514 122.876C110.514 122.876 109.841 125.105 107.78 124.914C107.222 124.884 106.691 124.667 106.272 124.297C105.853 123.927 105.571 123.427 105.472 122.876Z" fill="white" stroke="#934735" stroke-width="0.372438" stroke-linecap="round" stroke-linejoin="round"/>
<path d="M104.772 111.325C105.111 112.667 101.737 115.039 100.895 114.064C100.053 113.089 104.258 109.31 104.772 111.325Z" fill="#FFEACC"/>
<path d="M107.801 110.739C107.697 111.703 111.755 112.514 111.81 111.785C111.864 111.057 107.993 108.997 107.801 110.739Z" fill="#FFEACC"/>
<path d="M107.118 112.327C106.724 113.713 106.473 115.515 107.802 116.161C109.13 116.808 110.93 116.556 111.11 119.196" stroke="#934735" stroke-width="0.372438" stroke-linecap="round" stroke-linejoin="round"/>
<path d="M58.5136 202.66C57.7535 211.319 57.7316 229.443 66.7164 234.043C81.5198 241.618 84.6533 222.032 84.0025 202.66H58.5136Z" fill="#FFC619"/>
<path d="M89.5256 172.367C89.2467 183.819 84.314 205.837 84.314 205.837C79.7259 206.215 75.805 206.385 72.4527 206.385C58.3329 206.385 54.4065 203.602 54.4065 203.602C54.4065 203.602 57.2665 181.53 61.3078 167.06C61.7125 165.597 62.1336 164.212 62.5601 162.935C66.2842 151.877 70.9871 147.287 76.2315 146.345C77.6127 146.107 79.023 146.09 80.4095 146.296C86.2171 147.085 88.7709 156.155 89.3888 165.636C89.542 167.854 89.5802 170.143 89.5256 172.367Z" fill="#FF78B9"/>
<path d="M89.3999 165.592C84.0899 160.925 77.9159 159.638 70.588 162.19C67.2929 163.387 64.1677 165.009 61.2915 167.016C61.6962 165.553 62.1173 164.168 62.5438 162.891C66.2679 151.833 70.9708 147.244 76.2152 146.301C77.5964 146.063 79.0067 146.046 80.3932 146.252C86.2281 147.041 88.7819 156.1 89.3999 165.592Z" fill="#FA5EA9"/>
<path d="M89.5253 172.367C89.2464 183.819 84.3137 205.837 84.3137 205.837" stroke="#F7AD2B" stroke-width="0.372438" stroke-linecap="round" stroke-linejoin="round"/>
<path d="M142.04 183.869C142.04 183.869 143.681 185.073 141.936 188.371C141.936 188.371 143.757 190.052 141.318 192.873C141.65 193.524 141.739 194.273 141.569 194.984C141.398 195.695 140.98 196.321 140.389 196.751C137.925 198.91 135.307 200.886 132.558 202.666C131.278 203.454 129.517 204.61 126.739 206.582C125.645 207.36 124.377 208.269 122.911 209.32C119.63 211.714 115.354 214.896 109.721 219.179C86.8897 236.519 73.2566 238.896 65.3272 233.184C59.0274 228.649 66.9677 208.198 91.2864 200.015C103.804 195.798 111.487 193.59 116.19 192.265C118.099 191.717 119.521 191.334 120.565 191.016C121.954 190.589 122.703 190.293 123.113 189.948C124.579 188.688 125.257 187.21 125.968 185.435C126.679 183.66 128.352 177.011 128.768 175.193C129.183 173.375 132.328 172.323 131.803 182.603C131.803 182.603 140.799 179.668 142.428 179.246C144.058 178.824 144.703 182.401 142.04 183.869Z" fill="#FFC619"/>
<path d="M126.739 206.582C125.646 207.359 124.377 208.269 122.911 209.32C120.855 206.872 116.48 200.699 116.201 192.27C118.11 191.723 119.532 191.339 120.576 191.021C120.855 195.277 123.349 202.748 126.739 206.582Z" fill="#683F1D"/>
<path d="M119.92 203.849C122.206 203.849 124.06 201.992 124.06 199.703C124.06 197.413 122.206 195.556 119.92 195.556C117.634 195.556 115.78 197.413 115.78 199.703C115.78 201.992 117.634 203.849 119.92 203.849Z" fill="white" stroke="#683F1D" stroke-width="0.492933" stroke-linecap="round" stroke-linejoin="round"/>
<path d="M125.99 185.44C126.695 183.66 128.374 177.017 128.79 175.198C129.205 173.38 132.35 172.328 131.825 182.609C131.825 182.609 140.821 179.673 142.45 179.251C144.08 178.83 144.703 182.401 142.04 183.869C142.04 183.869 143.681 185.073 141.936 188.371C141.936 188.371 143.757 190.052 141.318 192.873C141.65 193.524 141.739 194.273 141.569 194.984C141.398 195.695 140.98 196.321 140.389 196.751" stroke="#934735" stroke-width="0.372438" stroke-linecap="round" stroke-linejoin="round"/>
<path d="M142.04 183.869C140.4 184.624 137.064 185.999 137.064 185.999" stroke="#934735" stroke-width="0.372438" stroke-linecap="round" stroke-linejoin="round"/>
<path d="M141.936 188.371C140.941 189.022 138.617 190.189 138.617 190.189" stroke="#934735" stroke-width="0.372438" stroke-linecap="round" stroke-linejoin="round"/>
<path d="M141.318 192.873C140.842 193.149 140.345 193.387 139.831 193.585" stroke="#934735" stroke-width="0.372438" stroke-linecap="round" stroke-linejoin="round"/>
<path d="M131.825 182.609C130.299 183.058 129.091 183.512 129.091 183.512" stroke="#934735" stroke-width="0.372438" stroke-linecap="round" stroke-linejoin="round"/>
<path d="M239.009 162.952C238.946 164.086 238.824 165.215 238.642 166.336C237.226 175.565 232.135 188.825 226.486 196.926C225.355 198.595 224.05 200.139 222.592 201.532C218.152 205.623 211.081 206.395 206.143 203.531C204.652 202.67 203.382 201.474 202.433 200.037C201.484 198.599 200.882 196.96 200.674 195.25C200.459 193.767 200.443 192.262 200.625 190.775C201.571 182.39 207.275 168.018 214.16 157.65C214.942 156.456 215.751 155.311 216.566 154.243C220.454 149.139 224.572 145.579 228.334 145.195C229.112 145.104 229.899 145.165 230.653 145.376C236.887 147.172 239.572 152.058 239.009 162.952Z" fill="#FED81D"/>
<path d="M227.601 167.985C225.712 174.494 224.953 181.281 225.359 188.047C225.577 191.034 225.953 194.007 226.486 196.953C225.355 198.623 224.05 200.167 222.592 201.559C218.152 205.651 211.081 206.423 206.143 203.558C204.652 202.698 203.382 201.501 202.433 200.064C201.483 198.627 200.881 196.988 200.674 195.277C205.049 199.976 209.642 200.99 213.252 199.801C218.491 198.114 221.777 191.876 219.759 185.495C216.21 174.278 224.216 167.865 228.039 165.997C227.94 166.621 227.787 167.284 227.601 167.985Z" fill="#FFC619"/>
<path d="M239.009 162.952C238.946 164.086 238.824 165.215 238.642 166.336C237.988 165.364 237.448 164.318 237.035 163.22C235.099 158.044 231.61 155.13 227.738 153.865C224.079 152.729 220.145 152.862 216.571 154.243C220.459 149.139 224.577 145.579 228.34 145.195C229.117 145.104 229.904 145.165 230.658 145.376C236.887 147.172 239.572 152.058 239.009 162.952Z" fill="#FFE05C"/>
<path d="M282.692 254.248C268.102 251.778 253.539 249.801 239.594 248.47C235.482 248.083 231.327 247.718 227.131 247.375C227.919 237.861 229.69 222.246 232.95 218.451C233.122 218.21 233.344 218.01 233.601 217.864C233.858 217.717 234.143 217.628 234.437 217.602C236.285 217.569 240.912 217.415 246.413 217.213C258.625 216.753 275.145 216.068 275.145 216.068C275.38 216.988 275.615 217.903 275.845 218.807C275.845 218.845 275.845 218.889 275.883 218.932C278.776 230.575 281.048 242.364 282.692 254.248Z" fill="#83ADDF"/>
<path d="M269.288 220.773C271 224.607 275.577 229.103 277.125 230.128" stroke="white" stroke-width="0.492933" stroke-miterlimit="10"/>
<path d="M253.861 154.057C246.817 154.917 245.297 149.265 245.253 141.186C245.253 139.286 245.319 137.248 245.423 135.123C245.48 133.876 245.613 132.634 245.822 131.404C248.223 117.64 259.597 119.305 260.183 127.417C260.407 130.495 262.572 152.995 253.861 154.057Z" fill="#FF78B9"/>
<path d="M253.697 132.702C253.32 138.135 249.421 140.918 245.259 141.186C245.259 139.286 245.325 137.248 245.429 135.123C245.485 133.876 245.619 132.634 245.828 131.404C248.119 130.424 253.993 128.32 253.697 132.702Z" fill="#FF3F9B"/>
<path d="M280.98 186.224C280.608 187.466 280.314 188.73 280.099 190.008C280.039 190.359 279.984 190.709 279.93 191.054C277.769 204.533 277.502 217.037 277.354 218.336C277.206 219.634 265.154 219.184 256.185 218.746C252.691 218.571 248.174 218.62 243.914 218.653C237.242 218.702 231.199 218.719 230.691 217.771C230.368 217.158 229.504 213.57 228.563 208.964C228.416 208.247 228.268 207.513 228.115 206.773C228.038 206.401 227.967 206.018 227.896 205.634C227.825 205.251 227.727 204.752 227.645 204.314C227.563 203.876 227.464 203.372 227.377 202.896C227.185 201.844 226.994 200.782 226.83 199.725C226.666 198.667 226.48 197.632 226.321 196.614C225.816 193.662 225.469 190.686 225.282 187.697C224.948 180.925 225.779 174.146 227.738 167.657C227.787 167.487 227.836 167.322 227.874 167.158C227.951 166.873 228.022 166.61 228.088 166.309L228.186 165.866C228.219 165.718 228.246 165.57 228.274 165.422C228.301 165.274 228.334 165.126 228.356 164.984C228.377 164.841 228.405 164.688 228.427 164.54C228.476 164.255 228.514 163.965 228.552 163.686C228.629 162.985 228.689 162.295 228.717 161.621C228.717 161.528 228.717 161.435 228.717 161.347C228.717 160.87 228.717 160.399 228.717 159.934C228.666 157.795 228.427 155.666 228 153.57C227.311 149.993 226.387 147.304 226.617 146.066C226.726 145.458 227.355 145.091 228.46 144.932C228.536 144.932 228.618 144.932 228.689 144.905C231.423 144.587 236.64 145.36 243.761 146.833C243.905 145.233 244.159 143.644 244.521 142.079C244.591 141.835 244.74 141.621 244.945 141.471C245.15 141.321 245.399 141.244 245.653 141.252C246.429 141.181 247.479 141.465 248.485 141.558C250.197 141.717 256.021 140.655 259.018 139.072C259.62 138.72 260.285 138.489 260.976 138.393C262.414 138.256 262.911 139.39 263.097 140.94C263.097 141.005 263.097 141.076 263.097 141.142C263.097 141.208 263.097 141.285 263.097 141.361C263.097 141.438 263.097 141.646 263.13 141.794C263.163 141.942 263.13 142.013 263.157 142.128C263.185 142.243 263.157 142.429 263.185 142.583C263.212 142.736 263.185 142.95 263.185 143.13C263.185 143.311 263.185 143.481 263.185 143.678C263.185 143.766 263.185 143.859 263.185 143.952C263.185 144.045 263.185 144.105 263.185 144.182C263.185 144.259 263.185 144.39 263.185 144.494C263.185 144.598 263.185 144.757 263.185 144.883C263.185 145.009 263.185 145.14 263.185 145.266V145.513C263.185 146.608 263.185 147.485 263.185 147.485C268.599 145.431 276.758 143.333 282.943 147.14H282.976C284.988 148.417 286.653 150.175 287.821 152.255C288.127 152.774 288.417 153.321 288.69 153.898C293.907 164.891 284.501 174.24 280.98 186.224Z" fill="#FED81D"/>
<path d="M287.947 152.233C282.724 152.874 276.878 156.27 271.393 162.798C270.54 163.813 269.698 164.909 268.867 166.085C260.046 178.446 244.685 175.171 238.79 166.156C238.144 165.179 237.616 164.129 237.215 163.028C235.328 157.831 231.872 154.879 228.017 153.575C227.328 149.999 226.404 147.309 226.633 146.071C226.743 145.464 227.371 145.097 228.476 144.938C228.553 144.938 228.635 144.938 228.706 144.91C231.44 144.593 236.657 145.365 243.777 146.838C243.921 145.238 244.175 143.65 244.537 142.084C244.608 141.84 244.757 141.626 244.962 141.477C245.167 141.327 245.416 141.25 245.669 141.257C246.446 141.186 247.496 141.471 248.502 141.564C250.214 141.723 256.038 140.66 259.034 139.077C259.636 138.725 260.302 138.494 260.992 138.398C262.43 138.261 262.928 139.395 263.114 140.945C263.114 141.011 263.114 141.082 263.114 141.148C263.114 141.213 263.114 141.29 263.114 141.367C263.114 141.443 263.114 141.652 263.147 141.799C263.18 141.947 263.147 142.018 263.174 142.133C263.201 142.249 263.174 142.435 263.201 142.588C263.229 142.741 263.201 142.955 263.201 143.136C263.201 143.317 263.201 143.486 263.201 143.684C263.201 143.771 263.201 143.864 263.201 143.957C263.201 144.05 263.201 144.111 263.201 144.187C263.201 144.264 263.201 144.396 263.201 144.5C263.201 144.604 263.201 144.762 263.201 144.888C263.201 145.014 263.201 145.146 263.201 145.272V145.518C263.201 146.614 263.201 147.49 263.201 147.49C268.615 145.436 276.774 143.338 282.959 147.145H282.992C285.042 148.4 286.745 150.15 287.947 152.233Z" fill="#FFE05C"/>
<path d="M228.531 161.347C228.514 162.898 228.36 164.445 228.072 165.97C227.94 166.621 227.787 167.284 227.601 167.958C225.712 174.467 224.953 181.253 225.359 188.02C225.577 191.007 225.953 193.979 226.486 196.926C226.655 197.939 226.841 198.98 227.033 200.031C227.612 203.186 228.263 206.423 228.881 209.271C229.871 213.861 230.773 217.443 231.101 218.034" stroke="#FF8C19" stroke-width="0.372438" stroke-linecap="round" stroke-linejoin="round"/>
<path d="M280.056 190.819C278.038 204.325 277.901 216.824 277.764 218.122C277.628 219.42 265.575 219.108 256.607 218.757C253.112 218.62 248.595 218.719 244.335 218.796C247.835 215.876 255.075 211.078 262.021 214.113C271.662 218.325 276.206 205.037 270.322 203.849C264.438 202.66 264.131 195.956 262.983 190.534L267.795 188.579L280.056 190.819Z" fill="#FFC619"/>
<path d="M243.427 146.964C243.367 148.009 243.367 149.057 243.427 150.103" stroke="#FF8C19" stroke-width="0.372438" stroke-linecap="round" stroke-linejoin="round"/>
<path d="M262.983 147.2C262.906 149.259 262.813 150.601 262.813 150.601" stroke="#FF8C19" stroke-width="0.372438" stroke-linecap="round" stroke-linejoin="round"/>
<path d="M248.097 150.376C250.744 151.138 254.813 151.182 257.142 150.376" stroke="#FF8C19" stroke-width="0.372438" stroke-linecap="round" stroke-linejoin="round"/>
<path d="M305.348 198.761C302.613 202.238 295.182 202.907 289.133 198.07C287.446 196.706 286.002 195.065 284.862 193.218C284.195 192.155 283.337 190.545 282.38 188.65C281.959 187.806 281.51 186.908 281.056 185.977C278.513 180.763 275.588 174.443 273.739 170.828C272.812 169.001 272.118 167.066 271.672 165.066C271.486 164.272 271.339 163.467 271.224 162.656C269.829 152.923 273.318 142.703 282.741 146.838H282.768C284.644 147.665 286.64 149.456 288.647 151.806C293.514 157.524 298.403 166.594 301.52 173.413C302.231 174.963 302.843 176.398 303.346 177.652C306.988 186.722 308.755 194.39 305.348 198.761Z" fill="#FED81D"/>
<path d="M291.047 183.381C290.834 186.782 286.847 188.184 282.379 188.65C281.958 187.806 281.51 186.908 281.056 185.977C278.513 180.763 275.587 174.443 273.739 170.828C272.812 169.001 272.117 167.066 271.672 165.066C275.5 165.148 279.672 166.55 280.055 173.128C280.318 177.619 291.528 175.598 291.047 183.381Z" fill="#FFC619"/>
<path d="M288.647 151.822C288.319 151.822 287.99 151.877 287.668 151.921C282.451 152.611 276.643 156.073 271.224 162.656C269.829 152.923 273.318 142.703 282.741 146.838H282.768C284.644 147.682 286.64 149.473 288.647 151.822Z" fill="#FFE05C"/>
<path d="M284.862 193.218C284.195 192.155 283.337 190.545 282.38 188.65C281.959 187.806 281.51 186.908 281.056 185.977C278.513 180.763 275.588 174.443 273.739 170.828C272.812 169.001 272.118 167.066 271.672 165.066C271.486 164.272 271.339 163.467 271.224 162.656" stroke="#FF8C19" stroke-width="0.372438" stroke-linecap="round" stroke-linejoin="round"/>
<path d="M305.347 198.761C302.613 202.238 295.181 202.907 289.133 198.07C290.624 197.591 292.204 197.458 293.754 197.682C299.912 198.58 305.987 196.038 301.251 188.858C297.423 183.036 300.158 175.713 301.519 173.429C302.23 174.979 302.843 176.414 303.346 177.668C306.988 186.722 308.754 194.39 305.347 198.761Z" fill="#FFC619"/>
<path d="M265.799 106.719C264.645 107.541 263.934 107.672 263.962 108.91C263.989 110.148 263.453 110.509 262.912 110.712C262.37 110.914 262.977 111.835 262.808 112.722C262.638 113.609 260.363 114.453 260.363 114.453L245.254 107.332C243.996 105.799 244.543 104.95 244.948 104.128C244.987 104.051 245.007 103.966 245.007 103.879C245.007 103.793 244.987 103.707 244.948 103.63C244.734 103.082 243.816 102.562 244.051 101.921C244.351 101.105 245.144 100.968 246.118 100.935C247.091 100.902 246.878 98.1968 246.429 97.4628C245.981 96.7289 246.326 94.9489 247.851 95.0529C249.377 95.157 249.957 94.8503 250.093 94.1328C250.185 93.883 250.328 93.6549 250.512 93.4626C250.696 93.2704 250.917 93.1181 251.162 93.0154C251.408 92.9126 251.671 92.8615 251.937 92.8653C252.203 92.8691 252.465 92.9277 252.707 93.0374C253.894 93.6563 254.895 92.9717 255.628 92.2925C255.669 92.25 255.715 92.2114 255.764 92.1775C256.546 91.5696 258.187 91.2355 258.854 92.2925C259.521 93.3496 260.418 93.859 261.845 93.9356C263.273 94.0123 263.677 95.2282 263.371 96.4167C263.065 97.6052 263.508 98.016 264.426 98.5637C264.908 98.9442 265.262 99.4622 265.443 100.049C265.624 100.636 265.622 101.264 265.438 101.85C265.253 102.196 265.187 102.594 265.249 102.982C265.311 103.369 265.499 103.726 265.783 103.997C266.237 104.512 266.953 105.903 265.799 106.719Z" fill="#473526"/>
<path d="M260.041 126.173C258.847 126.686 257.553 126.92 256.256 126.858C251.067 126.617 238.396 131.316 238.396 131.316C236.269 131.579 234.973 132.313 235.935 133.376C236.898 134.438 237.8 137.505 235.339 137.757C234.855 137.803 234.368 137.803 233.885 137.757C232.441 137.631 231.801 137.023 231.981 136.454C232.211 135.725 233.775 135.906 234.07 135.588C234.366 135.271 234.437 134.625 233.474 133.721C232.512 132.817 231.834 131.426 232.813 130.007C233.792 128.589 235.771 127.296 234.574 126.294C233.376 125.292 232.386 124.393 232.933 123.194C233.48 121.994 236.258 120.297 234.962 118.812C233.666 117.328 232.501 115.449 235.027 113.149C237.554 110.849 240.113 111.287 239.747 109.315C239.38 107.343 239.687 105.448 242.41 105.914C245.133 106.379 245.538 106.182 246.736 105.514C247.933 104.846 249.525 105.213 251.061 106.549C252.598 107.886 254.053 106.379 255.912 106.746C257.771 107.113 255.912 108.91 258.274 109.315C260.637 109.72 261.435 109.814 261.703 112.054C261.971 114.294 263.535 114.343 263.858 115.055C264.53 116.485 263.464 117.487 263.163 118.341C262.862 119.196 263.524 119.7 264.049 120.576C264.886 122.06 263.103 124.87 260.041 126.173Z" fill="#604730"/>
<path d="M260.85 122.17C260.676 123.523 260.4 124.862 260.024 126.173C258.831 126.686 257.537 126.92 256.24 126.858C251.05 126.617 238.379 131.316 238.379 131.316C236.252 131.579 234.956 132.313 235.919 133.376C236.881 134.438 237.783 137.505 235.323 137.757C234.839 137.803 234.352 137.803 233.868 137.757C235.711 137.456 236.203 136.142 235.251 134.4C233.944 132.006 234.415 130.566 235.727 129.213C237.04 127.86 234.891 124.596 235.727 122.887C236.564 121.178 237.986 120.576 237.417 117.996C236.848 115.417 237.127 114.162 239.178 112.744C241.229 111.325 242.924 111.035 244.012 109.326C245.1 107.617 247.939 106.533 248.906 108.581C249.874 110.63 250.186 112.015 252.904 111.183C255.622 110.35 257.443 111.374 256.475 113.713C255.507 116.052 255.966 118.27 257.673 118.555C259.379 118.84 261.189 118.927 260.85 122.17Z" fill="#473526"/>
<path d="M258.914 129.996C248.704 137.434 244.302 139.882 239.419 135.769C237.144 133.858 236.75 129.953 237.199 125.965C237.366 124.543 237.621 123.133 237.964 121.742C238.475 119.481 239.259 117.291 240.299 115.219C242.487 111.254 247.529 111.057 248.037 111.254C248.546 111.451 248.704 111.747 248.212 112.897C247.72 114.047 248.261 114.907 249.678 114.951C251.094 114.995 252.713 115.981 252.56 117.399C252.467 118.09 252.58 118.792 252.885 119.419C253.189 120.045 253.672 120.568 254.271 120.921C255.589 121.753 255.365 123.03 255.54 123.807C255.715 124.585 257.35 125.45 257.793 124.393C258.236 123.336 260.768 121.02 262.824 123.128C264.88 125.237 263.065 130.144 258.914 129.996Z" fill="#FF78B9"/>
<path d="M246.676 124.678C247.168 125.702 248.94 125.867 250.624 125.051C252.308 124.235 253.287 122.745 252.811 121.721C252.336 120.696 250.553 120.527 248.863 121.348C247.173 122.17 246.184 123.654 246.676 124.678Z" fill="#FF3F9B"/>
<path d="M239.791 125.571C239.326 126.223 238.298 126.343 237.198 125.965C237.366 124.543 237.621 123.133 237.964 121.743C238.057 121.796 238.146 121.854 238.232 121.918C239.758 123.013 240.452 124.651 239.791 125.571Z" fill="#FF3F9B"/>
<path d="M239.594 120.625C239.592 120.764 239.633 120.9 239.709 121.016C239.785 121.132 239.894 121.223 240.022 121.277C240.15 121.331 240.291 121.345 240.427 121.319C240.563 121.293 240.688 121.226 240.786 121.128C240.885 121.031 240.952 120.906 240.98 120.769C241.007 120.633 240.994 120.492 240.941 120.364C240.888 120.235 240.798 120.125 240.683 120.048C240.568 119.971 240.432 119.93 240.294 119.93C240.109 119.93 239.932 120.003 239.8 120.133C239.669 120.263 239.595 120.44 239.594 120.625Z" fill="#683F1D"/>
<path d="M243.859 120.998C243.859 121.136 243.9 121.272 243.977 121.387C244.054 121.502 244.164 121.592 244.291 121.645C244.419 121.698 244.56 121.712 244.696 121.685C244.832 121.658 244.956 121.591 245.054 121.493C245.152 121.395 245.219 121.27 245.246 121.134C245.273 120.998 245.259 120.858 245.206 120.729C245.153 120.601 245.063 120.492 244.948 120.415C244.833 120.338 244.698 120.297 244.559 120.297C244.374 120.297 244.196 120.37 244.064 120.502C243.933 120.633 243.859 120.812 243.859 120.998Z" fill="#683F1D"/>
<path d="M258.537 126.864C258.674 125.357 260.391 123.282 262.245 124.815" stroke="#934735" stroke-width="0.372438" stroke-linecap="round" stroke-linejoin="round"/>
<path d="M258.603 126.491C259.888 124.3 262.474 127.307 259.461 127.91" stroke="#934735" stroke-width="0.372438" stroke-linecap="round" stroke-linejoin="round"/>
<path d="M241.59 125.111C240.824 124.755 240.523 124.059 240.589 123.89C240.655 123.72 243.05 121.951 242.591 119.229" stroke="#934735" stroke-width="0.372438" stroke-linecap="round" stroke-linejoin="round"/>
<path d="M244.559 115.827C244.34 117.246 247.78 118.632 248.311 117.739C248.764 116.972 244.876 113.762 244.559 115.827Z" fill="#473526"/>
<path d="M238.784 116.764C238.817 117.169 242.509 117.087 242.459 115.669C242.41 114.25 238.691 115.57 238.784 116.764Z" fill="#473526"/>
<path d="M241.95 126.546C243.23 126.209 244.479 125.765 245.685 125.22C245.685 125.22 246.068 127.587 244.559 128.019C244.291 128.096 244.011 128.12 243.734 128.087C243.457 128.055 243.189 127.967 242.946 127.83C242.704 127.693 242.49 127.509 242.319 127.288C242.148 127.068 242.023 126.815 241.95 126.546Z" fill="white" stroke="#934735" stroke-width="0.372438" stroke-linecap="round" stroke-linejoin="round"/>
<path d="M261.397 100.974C260.85 102.737 258.777 100.913 258.613 103.433C258.449 105.952 253.429 105.246 251.893 102.798C250.635 100.782 247.069 101.538 244.975 103.668C244.762 103.121 243.843 102.6 244.078 101.96C244.379 101.143 245.172 101.007 246.145 100.974C247.119 100.941 246.905 98.2351 246.457 97.5012C246.008 96.7673 246.353 94.9873 247.879 95.0913C249.404 95.1954 249.984 94.8887 250.121 94.1712C250.213 93.9214 250.355 93.6933 250.539 93.501C250.723 93.3088 250.944 93.1565 251.19 93.0537C251.435 92.951 251.699 92.8999 251.965 92.9037C252.23 92.9075 252.493 92.966 252.735 93.0758C253.921 93.6947 254.922 93.01 255.655 92.3309C255.697 92.2883 255.743 92.2498 255.792 92.2159C256.377 93.859 256.803 96.1484 259.073 96.351C262.239 96.6413 261.944 99.2046 261.397 100.974Z" fill="#604730"/>
<path d="M196.021 149.423C196.305 147.616 201.374 146.269 204.322 145.705L205.448 153C205.448 153 197.344 151.839 196.021 149.423Z" fill="#FFC619"/>
<path d="M200.734 153.301C200.149 145.403 200.149 138.76 199.985 136.218C199.821 133.677 199.947 131.021 202.905 129.799C202.905 129.799 202.905 127.472 206.279 127.061C206.279 127.061 205.853 124.974 208.675 125.029C208.669 124.833 208.708 124.639 208.79 124.462C208.872 124.284 208.993 124.128 209.145 124.005C209.297 123.883 209.476 123.797 209.666 123.755C209.857 123.713 210.055 123.716 210.244 123.764C212.092 124.087 212.689 125.22 212.689 125.22C215.138 124.673 216.517 127.242 216.385 129.339C216.254 131.437 216.106 133.721 215.095 135.835C214.083 137.949 212.798 141.449 212.798 141.449L212.88 145.885C212.88 145.885 210.999 160.153 200.734 153.301Z" fill="#FF78B9"/>
<path d="M199.985 136.218C199.815 133.704 199.947 131.021 202.905 129.799C202.905 129.799 202.905 127.472 206.279 127.061C206.279 127.061 205.853 124.974 208.675 125.029C208.669 124.833 208.708 124.639 208.79 124.462C208.871 124.284 208.993 124.128 209.145 124.005C209.297 123.883 209.476 123.797 209.666 123.755C209.857 123.713 210.055 123.716 210.244 123.764C212.092 124.087 212.688 125.22 212.688 125.22C215.138 124.673 216.516 127.242 216.385 129.339" stroke="#934735" stroke-width="0.372438" stroke-linecap="round" stroke-linejoin="round"/>
<path d="M212.688 125.22C210.167 126.464 208.314 128.797 209.074 129.942C209.834 131.086 212.694 129.651 213.082 129.284" stroke="#934735" stroke-width="0.372438" stroke-linecap="round" stroke-linejoin="round"/>
<path d="M208.461 125.034C209.413 125.16 211.289 126.217 211.289 126.217" stroke="#934735" stroke-width="0.372438" stroke-linecap="round" stroke-linejoin="round"/>
<path d="M206.28 127.061C207.385 127.106 208.468 127.386 209.457 127.882" stroke="#934735" stroke-width="0.372438" stroke-linecap="round" stroke-linejoin="round"/>
<path d="M209.025 133.19C209.867 132.549 210.594 131.42 210.375 130.374" stroke="#934735" stroke-width="0.372438" stroke-linecap="round" stroke-linejoin="round"/>
<path d="M202.883 129.821C204.896 128.994 206.941 128.058 207.548 129.432C208.155 130.807 208.489 135.041 207.548 135.616C206.607 136.191 205.032 135.714 204.764 134.608C204.497 133.502 204.294 131.985 204.294 131.985" stroke="#934735" stroke-width="0.372438" stroke-linecap="round" stroke-linejoin="round"/>
<path d="M206.64 135.857C207.488 136.903 207.187 140.605 206.28 141.843" stroke="#934735" stroke-width="0.372438" stroke-linecap="round" stroke-linejoin="round"/>
<path d="M213.274 199.752C211.633 202.868 209.282 204.566 206.132 203.509C200.198 201.494 197.836 195.792 196.972 190.222C196.064 184.411 196.775 178.72 196.748 177.537C196.688 175.176 196.042 149.412 196.042 149.412C197.07 149.823 198.629 149.834 200.516 149.478C201.953 149.193 203.363 148.786 204.732 148.262C207.6 147.162 210.329 145.728 212.864 143.99L212.973 143.914C212.973 143.914 213.487 150.3 214.181 157.639C214.767 163.927 215.488 170.91 216.134 175.165C217.151 182.099 216.555 193.661 213.274 199.752Z" fill="#FED81D"/>
<path d="M213.274 199.752C211.633 202.868 209.282 204.566 206.132 203.509C200.198 201.494 197.836 195.792 196.972 190.222C198.029 192.021 199.275 193.701 200.691 195.233C205.071 199.949 209.648 200.962 213.274 199.752Z" fill="#FFC619"/>
<path d="M212.956 143.93C212.956 143.93 214.728 165.937 216.117 175.198C216.874 181.089 216.69 187.062 215.57 192.895" stroke="#FF8C19" stroke-width="0.372438" stroke-linecap="round" stroke-linejoin="round"/>
<path d="M275.692 170.407L254.594 161.581C252.93 160.885 251.018 161.672 250.323 163.338L237.795 193.378C237.1 195.045 237.885 196.96 239.549 197.656L260.647 206.482C262.311 207.178 264.223 206.391 264.918 204.725L277.446 174.685C278.141 173.018 277.355 171.103 275.692 170.407Z" fill="#EDEDED"/>
<path d="M273.318 169.409L254.592 161.575C252.928 160.879 251.016 161.666 250.321 163.332L237.793 193.373C237.098 195.039 237.884 196.954 239.547 197.65L258.273 205.484C259.937 206.18 261.849 205.393 262.544 203.727L275.072 173.687C275.767 172.02 274.982 170.105 273.318 169.409Z" fill="#F9F9F9" stroke="#DDDDDD" stroke-width="0.492933" stroke-linecap="round" stroke-linejoin="round"/>
<path d="M255.836 166.577C255.836 166.859 255.752 167.134 255.596 167.369C255.44 167.603 255.218 167.785 254.958 167.893C254.698 168.001 254.412 168.029 254.136 167.974C253.861 167.919 253.607 167.784 253.408 167.584C253.21 167.385 253.074 167.132 253.019 166.855C252.964 166.579 252.993 166.293 253.1 166.033C253.208 165.772 253.39 165.55 253.624 165.393C253.858 165.237 254.133 165.153 254.414 165.153C254.601 165.153 254.786 165.189 254.959 165.26C255.132 165.332 255.289 165.437 255.421 165.569C255.553 165.701 255.658 165.859 255.729 166.032C255.8 166.205 255.836 166.39 255.836 166.577Z" fill="#EDEDED"/>
<path d="M258.181 167.985C258.182 168.126 258.142 168.265 258.064 168.383C257.986 168.501 257.875 168.593 257.745 168.647C257.615 168.702 257.471 168.716 257.333 168.689C257.195 168.662 257.067 168.594 256.968 168.494C256.868 168.394 256.8 168.267 256.773 168.128C256.746 167.989 256.76 167.846 256.815 167.716C256.869 167.585 256.961 167.474 257.079 167.396C257.197 167.318 257.335 167.277 257.476 167.279C257.663 167.28 257.841 167.355 257.973 167.487C258.105 167.619 258.18 167.798 258.181 167.985Z" fill="#EDEDED"/>
<path d="M257.142 191.608C255.748 191.12 255.026 188.42 254.84 186.092L260.309 186.739C260.309 186.739 260.347 191.958 257.142 191.608Z" fill="#FFC619"/>
<path d="M258.98 190.233C257.428 189.123 255.822 188.092 254.167 187.144C253.544 186.804 250.006 186.404 247.545 185.046C245.887 184.108 244.289 183.067 242.76 181.93L241.787 183.742C241.787 183.742 239.873 181.672 239.599 179.805C239.326 177.937 240.08 177.877 240.529 177.477C240.977 177.077 240.698 176.485 240.671 175.521C240.644 174.558 241.464 174.36 241.721 174.021C241.978 173.681 241.748 172.799 241.694 171.611C241.639 170.422 243.05 170.362 243.274 169.683C243.498 169.004 243.701 166.818 245.626 167.388C247.55 167.958 255.928 174.191 256.475 174.475C257.289 174.767 258.123 175.003 258.969 175.182C258.969 175.182 265.826 185.922 258.98 190.233Z" fill="#F875B1"/>
<path d="M242.76 181.93L241.787 183.742C241.787 183.742 239.873 181.672 239.599 179.805C239.326 177.937 240.08 177.877 240.529 177.477C240.977 177.077 240.698 176.485 240.671 175.521C240.644 174.558 241.464 174.36 241.721 174.021C241.978 173.681 241.748 172.799 241.694 171.611C241.639 170.422 243.05 170.362 243.274 169.683C243.498 169.004 243.701 166.818 245.626 167.388" stroke="#934735" stroke-width="0.372438" stroke-linecap="round" stroke-linejoin="round"/>
<path d="M242.76 181.93C241.803 181.125 241.606 180.993 241.606 180.993" stroke="#934735" stroke-width="0.372438" stroke-linecap="round" stroke-linejoin="round"/>
<path d="M306.419 197.315C304.664 202.715 298.118 207.502 283.194 201.85L282.38 201.532C266.865 195.37 257.137 191.602 257.137 191.602C258.478 185.92 258.478 180.004 257.137 174.322C266.045 176.82 289.604 181.661 297.97 184.121C298.517 184.285 299.064 184.455 299.551 184.668C306.572 187.264 308.115 192.084 306.419 197.315Z" fill="#FED81D"/>
<path d="M282.379 201.532C266.865 195.37 257.142 191.607 257.142 191.607" stroke="#FF8C19" stroke-width="0.372438" stroke-linecap="round" stroke-linejoin="round"/>
<path d="M257.142 174.322C265.225 176.59 285.382 180.785 295.291 183.381" stroke="#FF8C19" stroke-width="0.372438" stroke-linecap="round" stroke-linejoin="round"/>
<path d="M306.42 197.315C304.664 202.715 298.118 207.502 283.195 201.85C283.195 201.85 287.569 196.783 293.754 197.682C299.939 198.58 305.988 196.038 301.252 188.858C300.413 187.58 299.835 186.149 299.551 184.646C306.573 187.264 308.115 192.084 306.42 197.315Z" fill="#FFC619"/>
<path d="M338.81 163.143C331.482 166.977 326.15 163.313 325.461 159.249C325.013 156.587 325.275 150.453 325.428 144.078C325.505 140.742 325.559 137.33 325.461 134.329C325.461 133.858 325.461 133.403 325.461 132.954C325.461 113.981 339.931 118.38 341.107 125.724C341.85 130.385 342.993 139.669 343.551 144.565C344.109 149.462 346.159 159.309 338.81 163.143Z" fill="#FEBD9D"/>
<path d="M325.428 144.078C325.504 140.742 325.559 137.33 325.461 134.329C325.461 133.858 325.461 133.403 325.461 132.954C329.059 132.779 334.757 132.604 334.757 132.604C335.807 140.003 331.596 144.779 325.428 144.078Z" fill="#F4A789"/>
<path d="M299.529 228.473C300.19 229.487 304.997 225.735 306.375 223.544L301.492 216.796C301.492 216.796 297.631 225.532 299.529 228.473Z" fill="#A7CAF0"/>
<path d="M311.39 210.372C317.406 219.568 320.195 222.471 320.627 226.299C321.059 230.127 319.456 239.63 315.207 241.235C310.958 242.84 301.153 236.108 300.781 234.569C300.409 233.03 305.063 233.704 307.24 234.75C307.24 234.75 303.083 229.163 303.083 222.903C303.083 221.298 297.331 218.149 297.331 218.149C297.331 218.149 302.094 203.827 311.39 210.372Z" fill="#FEBD9D"/>
<path d="M383.854 279.574C365.223 272.936 342.293 266.522 318.056 261.155V250.277C318.056 247.336 318.395 242.363 318.833 236.979C319.188 232.532 319.609 227.805 319.927 223.725C320.216 220.296 320.441 217.317 320.539 215.339L327.927 215.263L341.713 215.131L369.86 214.852L374.426 214.808C374.946 227.794 379.49 243.201 382.689 254.895C384.986 263.231 384.39 273.977 383.854 279.574Z" fill="#683F1D"/>
<path d="M299.529 188.579L302.859 194.406L312.768 211.747" stroke="#83ADDF" stroke-width="0.372438" stroke-linecap="round" stroke-linejoin="round"/>
<path d="M368.799 216.084C367.377 216.375 359.448 216.632 350.419 216.742C336.748 216.884 320.561 216.605 320.561 215.34C320.561 213.357 321.425 211.506 318.953 207.162C316.481 202.819 312.391 199.429 312.025 191.525C311.658 183.622 313.507 174.826 313.507 174.826L309.629 178.66L299.529 188.579L302.859 194.406L312.768 211.747C312.768 211.747 299.409 216.95 299.529 228.473C299.529 228.473 281.226 205.678 275.784 197.873C270.343 190.068 276.523 181.146 285.305 171.978C289.68 167.399 294.487 161.232 299.288 156.04C304.09 150.847 308.929 146.641 313.386 146C315.907 145.639 319.402 145.327 323.164 145.075C323.897 145.02 324.635 144.971 325.384 144.927C325.182 152.666 327.413 154.095 327.413 154.095C328.507 154.742 328.622 154.44 328.72 155.738C328.819 157.037 329.42 160.717 330.476 160.717C331.936 160.717 332.876 158.318 334.112 154.846C334.927 150.694 340.045 149.073 341.697 146.816C342.269 146.004 342.669 145.084 342.873 144.111H343.48C344.437 144.346 345.591 144.615 346.854 144.872C350.135 145.54 354.165 146.154 357.435 146C361.772 145.803 374.47 146.061 378.249 156.1C378.249 156.1 378.249 156.127 378.249 156.144C378.407 156.571 378.55 157.02 378.681 157.486C378.779 157.853 378.867 158.258 378.943 158.696C381.185 171.819 372.272 215.361 368.799 216.084Z" fill="#C3DCF8"/>
<path d="M356.549 181.76C349.112 184.372 347.122 194.658 348.806 198.799C350.49 202.94 344.743 204.966 339.258 204.966C332.942 204.966 325.433 211.621 328.649 221.14L360.913 206.352L356.549 181.76Z" fill="#A7CAF0"/>
<path d="M379.2 158.795C379.124 158.756 379.036 158.729 378.96 158.696C372.211 156.023 364.309 157.71 359.169 161.982C357.864 163.05 356.735 164.316 355.822 165.734C349.67 175.423 329.885 180.714 323.388 168.012C318.128 157.716 310.264 154.49 299.288 156.045C304.101 150.853 308.929 146.647 313.386 146.006C315.907 145.644 319.402 145.332 323.164 145.08C323.897 145.025 324.635 144.976 325.384 144.932C325.182 152.671 327.413 154.101 327.413 154.101C328.507 154.747 328.622 154.446 328.72 155.744C328.819 157.042 329.42 160.723 330.476 160.723C331.936 160.723 332.876 158.324 334.112 154.851C334.927 150.7 340.045 149.078 341.697 146.822C342.269 146.01 342.669 145.089 342.873 144.116H343.48C344.437 144.352 345.591 144.62 346.854 144.878C350.135 145.546 354.165 146.159 357.435 146.006C361.772 145.809 374.47 146.066 378.249 156.105C378.249 156.105 378.249 156.133 378.249 156.149C378.625 157.008 378.943 157.892 379.2 158.795Z" fill="#D0E5F7"/>
<path d="M329.847 162.689C330.186 165.767 329.234 171.2 328.507 176.694C327.78 182.187 326.046 189.745 328.507 197.506C330.968 205.267 331.52 207.65 331.586 208.597C331.695 210.279 330.415 212.201 333.598 213.527" stroke="#83ADDF" stroke-width="0.372438" stroke-linecap="round" stroke-linejoin="round"/>
<path d="M327.413 154.095C324.372 153.372 322.207 157.086 321.048 160.224C320.933 151.154 322.026 146.986 323.164 145.075C324.301 143.163 325.444 143.525 325.444 143.525C325.412 144.018 325.395 144.483 325.384 144.927C325.182 152.649 327.413 154.095 327.413 154.095Z" fill="#83ADDF"/>
<path d="M297.073 220.773C297.675 217.519 301.814 211.834 308.382 208.844" stroke="#83ADDF" stroke-width="0.372438" stroke-linecap="round" stroke-linejoin="round"/>
<path d="M291.047 181.223C292.012 181.279 292.945 181.587 293.754 182.116C295.395 183.074 297.402 184.975 299.529 188.579" stroke="#83ADDF" stroke-width="0.372438" stroke-linecap="round" stroke-linejoin="round"/>
<path d="M313.507 174.826L314.485 170.63" stroke="#83ADDF" stroke-width="0.372438" stroke-linecap="round" stroke-linejoin="round"/>
<path d="M309.629 178.643L299.529 188.579C297.402 184.975 295.373 183.074 293.754 182.116C296.374 180.938 297.664 182.012 298.933 182.948C302.072 185.282 305.03 176.047 309.629 178.643Z" fill="#A7CAF0"/>
<path d="M305.757 250.272C302.881 250.82 299.966 246.52 299.004 243.875C298.041 241.229 305.725 240.041 305.725 240.041C305.725 240.041 308.224 248.218 305.757 250.272Z" fill="#A7CAF0"/>
<path d="M298.643 231.08C293.021 232.959 279.842 239.521 279.137 240.068C278.431 240.616 276.331 245.414 276.255 246.137C276.178 246.86 275.32 254.352 276.72 254.834C278.119 255.316 278.825 252.205 279.137 250.277C279.434 248.845 279.906 247.454 280.542 246.137C280.542 246.137 279.689 249.166 280.936 250.277C281.658 250.924 283.271 250.277 283.271 250.277C283.271 250.277 283.665 252.255 286.24 251.318C286.24 251.318 286.087 253.416 287.782 253.827C289.478 254.237 291.064 252.342 291.736 251.225C291.977 250.847 291.37 249.741 290.582 249.741C290.582 249.741 291.282 249.286 293.388 249.286C295.493 249.286 298.003 249.407 299.611 246.969C301.219 244.532 303.034 243.371 304.533 242.982L298.643 231.08Z" fill="#FEBD9D"/>
<path d="M276.255 246.137C276.172 246.865 275.319 254.352 276.719 254.834C278.119 255.316 278.825 252.205 279.136 250.278C279.434 248.845 279.906 247.454 280.542 246.137C280.542 246.137 279.689 249.166 280.936 250.278C281.657 250.924 283.271 250.278 283.271 250.278C283.271 250.278 283.664 252.255 286.24 251.318C286.24 251.318 286.087 253.416 287.782 253.827C289.477 254.237 291.063 252.342 291.736 251.225C291.977 250.847 291.37 249.741 290.582 249.741" stroke="#EF8A66" stroke-width="0.372438" stroke-linecap="round" stroke-linejoin="round"/>
<path d="M290.894 249.796C290.466 249.733 290.03 249.763 289.615 249.883" stroke="#EF8A66" stroke-width="0.372438" stroke-linecap="round" stroke-linejoin="round"/>
<path d="M290.013 248.497C289.592 249.593 289.067 251.269 289.275 251.751" stroke="#EF8A66" stroke-width="0.372438" stroke-linecap="round" stroke-linejoin="round"/>
<path d="M286.245 251.729C286.208 249.5 286.775 247.302 287.886 245.37" stroke="#EF8A66" stroke-width="0.372438" stroke-linecap="round" stroke-linejoin="round"/>
<path d="M283.271 250.277C282.861 248.634 284.124 244.455 285.136 243.24" stroke="#EF8A66" stroke-width="0.372438" stroke-linecap="round" stroke-linejoin="round"/>
<path d="M280.537 246.137C280.695 245.041 280.919 242.045 282.555 240.66" stroke="#EF8A66" stroke-width="0.372438" stroke-linecap="round" stroke-linejoin="round"/>
<path d="M366.431 229.876C363.997 231.157 358.163 233.359 351.021 235.856C332.717 242.248 305.828 250.568 305.757 250.272C305.659 249.861 303.297 239.071 295.192 231.88C295.192 231.88 332.794 213.883 344.841 208.247C352.076 204.862 363.144 199.111 369.105 204.583C369.324 204.78 369.532 204.988 369.729 205.202C376.154 211.977 374.825 225.445 366.431 229.876Z" fill="#C3DCF8"/>
<path d="M295.192 231.88C295.192 231.88 332.794 213.883 344.841 208.247C348.297 206.631 352.628 204.473 356.872 203.257" stroke="#83ADDF" stroke-width="0.372438" stroke-linecap="round" stroke-linejoin="round"/>
<path d="M303.083 230.609C307.628 236.191 311.39 246.137 311.39 246.137" stroke="#83ADDF" stroke-width="0.372438" stroke-linecap="round" stroke-linejoin="round"/>
<path d="M344.245 119.837C343.987 120.33 343.634 120.768 343.206 121.124C343.206 121.124 336.72 125.587 332.679 123.205C328.638 120.822 323.689 115.17 323.689 115.17C321.868 113.812 320.872 112.749 320.512 111.561C320.336 110.948 320.304 110.303 320.419 109.677C320.752 107.562 322.994 102.83 330.131 104.583C330.131 104.583 331.383 102.995 333.959 103.953C336.534 104.912 338.777 107.727 338.777 107.727C338.777 107.727 341.287 106.834 344.026 110.706C346.186 113.762 345.459 117.7 344.245 119.837Z" fill="#DD6819"/>
<path d="M344.245 119.836C343.987 120.33 343.634 120.768 343.206 121.124C343.206 121.124 336.721 125.587 332.679 123.205C328.638 120.822 323.689 115.17 323.689 115.17C321.868 113.812 320.873 112.749 320.512 111.561C320.84 108.116 322.426 105.651 325.767 106.681C330.503 108.143 332.789 110.767 337.503 109.501C337.503 109.501 338.695 118.823 344.245 119.836Z" fill="#CC5E0D"/>
<path d="M322.858 108.548C323.711 107.617 325.455 107.656 328.047 110.356" stroke="#FF79A0" stroke-width="0.372438" stroke-linecap="round" stroke-linejoin="round"/>
<path d="M328.6 104.293C330.55 104.7 332.392 105.514 334.008 106.681" stroke="#FF79A0" stroke-width="0.372438" stroke-linecap="round" stroke-linejoin="round"/>
<path d="M340.144 127.833C334.385 135.95 326.948 140.375 322.459 136.596C319.145 133.819 319.123 128.293 319.905 123.84C320.131 122.545 320.436 121.264 320.818 120.006C320.851 119.897 320.889 119.793 320.922 119.689C322.327 115.307 324.405 108.735 327.752 110.098C327.752 110.098 330.366 112.442 335.321 111.435C335.321 111.435 332.778 120.746 338.536 121.841C338.536 121.841 341.079 118.555 344.005 120.302C346.93 122.049 346.963 127.762 340.144 127.833Z" fill="#FEBD9D"/>
<path d="M328.179 118.204C328.178 118.343 328.218 118.479 328.294 118.595C328.37 118.711 328.479 118.802 328.607 118.856C328.735 118.91 328.876 118.924 329.012 118.898C329.148 118.872 329.273 118.805 329.372 118.707C329.47 118.61 329.537 118.485 329.565 118.349C329.592 118.212 329.579 118.071 329.526 117.943C329.473 117.814 329.383 117.705 329.268 117.627C329.153 117.55 329.017 117.509 328.879 117.509C328.694 117.509 328.517 117.582 328.386 117.712C328.255 117.842 328.18 118.019 328.179 118.204Z" fill="#683F1D"/>
<path d="M323.388 118.204C323.387 118.343 323.427 118.479 323.503 118.595C323.58 118.711 323.688 118.802 323.816 118.856C323.944 118.91 324.085 118.924 324.221 118.898C324.357 118.872 324.482 118.805 324.581 118.707C324.679 118.61 324.747 118.485 324.774 118.349C324.802 118.212 324.788 118.071 324.735 117.943C324.682 117.814 324.593 117.705 324.477 117.627C324.362 117.55 324.227 117.509 324.088 117.509C323.903 117.509 323.726 117.582 323.595 117.712C323.464 117.842 323.389 118.019 323.388 118.204Z" fill="#683F1D"/>
<path d="M321.95 115.148C322.13 115.729 325.865 115.395 325.778 114.086C325.636 112.327 321.611 114.047 321.95 115.148Z" fill="#DD6819"/>
<path d="M328.578 113.993C328.458 115.17 332.067 116.183 332.406 115.564C332.745 114.946 328.802 111.758 328.578 113.993Z" fill="#DD6819"/>
<path d="M323.952 122.082C323.842 120.987 324.422 119.754 325.209 119.475C325.997 119.196 327.216 118.434 326.943 115.592" stroke="#EF8A66" stroke-width="0.372438" stroke-linecap="round" stroke-linejoin="round"/>
<path d="M324.788 124.256C326.188 124.256 328.37 123.194 328.72 122.761C328.72 122.761 328.884 126.13 326.981 126.371C325.378 126.579 324.788 124.256 324.788 124.256Z" fill="white" stroke="#EF8A66" stroke-width="0.372438" stroke-linecap="round" stroke-linejoin="round"/>
<path d="M322.683 123.336C322.245 124.092 321.091 124.284 319.894 123.884C320.12 122.589 320.425 121.308 320.807 120.05L321.059 120.187C322.491 120.998 323.219 122.416 322.683 123.336Z" fill="#F4AF90"/>
<path d="M250.05 265.695L277.655 259.342L301.979 267.678L278.24 275.8L250.05 265.695Z" stroke="#DDDDDD" stroke-width="0.492933" stroke-linecap="round" stroke-linejoin="round"/>
<path d="M266.034 260.509V265.695C266.034 267.421 270.464 268.817 275.932 268.817C281.401 268.817 285.836 267.421 285.836 265.695V260.509H266.034Z" fill="#DDDDDD" stroke="#DDDDDD" stroke-width="0.492933" stroke-miterlimit="10"/>
<path d="M275.933 263.384C270.158 263.384 266.281 261.9 266.281 260.508C266.281 259.117 270.158 257.633 275.933 257.633C281.707 257.633 285.585 259.123 285.585 260.508C285.585 261.894 281.707 263.384 275.933 263.384Z" fill="#F9F9F9"/>
<path d="M275.932 257.88C281.762 257.88 285.338 259.413 285.338 260.509C285.338 261.604 281.762 263.138 275.932 263.138C270.103 263.138 266.527 261.604 266.527 260.509C266.527 259.413 270.103 257.88 275.932 257.88ZM275.932 257.387C270.464 257.387 266.034 258.783 266.034 260.509C266.034 262.234 270.464 263.63 275.932 263.63C281.401 263.63 285.836 262.234 285.836 260.509C285.836 258.783 281.401 257.387 275.932 257.387Z" fill="#DDDDDD"/>
<path d="M257.75 265.849C257.75 266.188 258.335 266.468 259.057 266.468C259.778 266.468 260.363 266.188 260.363 265.849C260.363 265.509 259.778 265.23 259.057 265.23C258.335 265.23 257.75 265.509 257.75 265.849Z" fill="#DDDDDD"/>
<path d="M277.179 272.991C277.179 273.33 277.764 273.61 278.486 273.61C279.208 273.61 279.787 273.33 279.787 272.991C279.787 272.651 279.202 272.372 278.486 272.372C277.77 272.372 277.179 272.651 277.179 272.991Z" fill="#DDDDDD"/>
<path d="M293.47 267.568C293.47 267.908 294.055 268.187 294.777 268.187C295.499 268.187 296.084 267.908 296.084 267.568C296.084 267.229 295.499 266.95 294.777 266.95C294.055 266.95 293.47 267.229 293.47 267.568Z" fill="#DDDDDD"/>
<path d="M10.8333 242.982C30.4708 242.369 51.9513 241.991 74.3724 241.925C94.5404 241.87 115.474 242.078 136.484 242.621C140.885 242.73 145.29 242.858 149.702 243.004C176.022 243.864 202.276 245.266 227.153 247.358C231.349 247.701 235.503 248.067 239.616 248.454C253.56 249.785 268.123 251.74 282.713 254.232C294.591 256.236 306.485 258.564 318.078 261.138C342.331 266.506 365.245 272.92 383.876 279.558C403.147 286.431 417.836 293.557 424.677 300.053" stroke="#EDEDED" stroke-width="0.991343" stroke-linecap="round" stroke-linejoin="round"/>
<path d="M251.663 272.049C242.831 276.627 190.995 290.123 190.995 290.123L186.248 285.418L155.952 255.409C155.952 255.409 184.865 249.593 190.257 250.245C194.763 250.792 235.192 261.588 248.108 268.045C250.635 269.338 252.314 271.715 251.663 272.049Z" stroke="#EDEDED" stroke-width="0.492933" stroke-linecap="round" stroke-linejoin="round"/>
<path d="M157.265 260.07C178.795 256.423 187.276 254.046 190.317 254.878C193.357 255.711 234.443 267.388 233.754 267.568C214.466 272.629 180.085 280.686 180.085 280.686L157.265 260.07Z" stroke="#DDDDDD" stroke-width="0.492933" stroke-linecap="round" stroke-linejoin="round"/>
<path d="M251.663 272.049C242.831 276.627 190.995 290.123 190.995 290.123L186.248 285.418L248.109 268.078C250.635 269.338 252.314 271.715 251.663 272.049Z" fill="#EDEDED"/>
<path d="M125.99 240.052C120.62 230.062 123.846 213.664 132.891 212.437C141.936 211.21 153.929 222.931 158.594 217.114C163.657 210.777 159.54 180.199 159.578 174.673L182.267 172.367C182.267 172.367 177.941 213.91 183.869 218.746C187.342 221.578 191.405 221.184 193.838 216.068C196.026 211.423 199.116 207.683 204.655 211.988C204.655 211.988 207.761 204.752 219.792 207.606C231.823 210.46 224.867 224.355 222.067 226.228C222.067 226.228 227.536 231.064 225.802 237.182C224.069 243.3 215.248 246.11 215.248 246.11C215.248 246.11 218.906 254.462 211.589 257.124C204.272 259.786 199.526 258.849 194.719 257.124C189.912 255.399 181.594 251.099 176.913 257.699C172.232 264.299 139.733 265.635 125.99 240.052Z" fill="#F9F9F9" stroke="#EDEDED" stroke-width="0.991343" stroke-linecap="round" stroke-linejoin="round"/>
<path d="M157.265 185.999C152.813 187.264 150.555 192.024 149.374 196.74C148.192 201.455 148.663 202.244 147.35 201.088C145.945 199.85 142.899 191.049 144.534 177.619C145.748 167.646 150.227 163.039 152.808 161.188C153.547 169.431 155.027 177.59 157.232 185.566C157.251 185.71 157.262 185.854 157.265 185.999Z" fill="#F0549F" stroke="#F0549F" stroke-width="0.991343" stroke-linecap="round" stroke-linejoin="round"/>
<path d="M194.03 201.088C192.717 202.244 193.171 201.444 192.001 196.739C190.831 192.035 188.567 187.264 184.115 185.999C184.117 185.856 184.126 185.714 184.143 185.572C186.355 177.592 187.837 169.426 188.572 161.177C191.153 163.045 195.632 167.651 196.846 177.608C198.476 191.049 195.441 199.85 194.03 201.088Z" fill="#F0549F" stroke="#F0549F" stroke-width="0.991343" stroke-linecap="round" stroke-linejoin="round"/>
<path d="M188.572 161.172C187.838 169.421 186.355 177.586 184.143 185.566C183.935 186.278 183.733 186.979 183.519 187.659H157.855C157.642 186.974 157.434 186.267 157.232 185.55C155.027 177.574 153.547 169.415 152.808 161.172C151.627 148.574 151.878 134.498 154.623 120.998C154.979 119.261 155.362 117.596 155.772 116.014C161.098 95.3322 170.69 86.8428 170.69 86.8428C170.69 86.8428 180.287 95.3322 185.608 116.014C186.018 117.596 186.407 119.261 186.757 120.998C189.502 134.498 189.759 148.553 188.572 161.172Z" fill="#66BCFF"/>
<path d="M185.608 116.014H155.772C161.098 95.3322 170.69 86.8428 170.69 86.8428C170.69 86.8428 180.287 95.3322 185.608 116.014Z" fill="#FF78B9"/>
<path d="M177.821 140.972C176.886 141.913 175.775 142.659 174.551 143.169C173.327 143.678 172.015 143.94 170.69 143.94C169.365 143.94 168.053 143.678 166.829 143.169C165.605 142.659 164.494 141.913 163.559 140.972C161.676 139.075 160.619 136.508 160.619 133.833C160.619 131.158 161.676 128.591 163.559 126.694C164.494 125.753 165.605 125.007 166.829 124.497C168.053 123.988 169.365 123.726 170.69 123.726C172.015 123.726 173.327 123.988 174.551 124.497C175.775 125.007 176.886 125.753 177.821 126.694C178.432 127.304 178.961 127.99 179.396 128.737C180.518 130.664 180.973 132.91 180.688 135.123C180.403 137.336 179.395 139.393 177.821 140.972Z" fill="#EDEDED" stroke="#F9F9F9" stroke-width="0.991343" stroke-linecap="round" stroke-linejoin="round"/>
<path d="M179.396 128.737L165.599 142.555C164.855 142.117 164.169 141.585 163.559 140.972C162.95 140.36 162.422 139.672 161.99 138.924L175.781 125.111C176.526 125.55 177.211 126.081 177.821 126.694C178.432 127.304 178.962 127.99 179.396 128.737Z" fill="#F9F9F9"/>
<path d="M170.69 159.025C166.381 164.754 164.128 193.733 170.69 201.559C177.263 193.727 174.994 164.754 170.69 159.025Z" fill="#F0549F" stroke="#F0549F" stroke-width="0.492933" stroke-miterlimit="10"/>
<path d="M177.821 140.972C176.886 141.913 175.775 142.659 174.551 143.169C173.327 143.678 172.015 143.94 170.69 143.94C169.365 143.94 168.053 143.678 166.829 143.169C165.605 142.659 164.494 141.913 163.559 140.972C161.676 139.075 160.619 136.508 160.619 133.833C160.619 131.158 161.676 128.591 163.559 126.694C164.494 125.753 165.605 125.007 166.829 124.497C168.053 123.988 169.365 123.726 170.69 123.726C172.015 123.726 173.327 123.988 174.551 124.497C175.775 125.007 176.886 125.753 177.821 126.694C178.432 127.304 178.961 127.99 179.396 128.737C180.518 130.664 180.973 132.91 180.688 135.123C180.403 137.336 179.395 139.393 177.821 140.972Z" stroke="#DDDDDD" stroke-width="0.991343" stroke-linecap="round" stroke-linejoin="round"/>
<path d="M222.067 226.233C220.971 227.052 219.824 227.8 218.633 228.473" stroke="#EDEDED" stroke-width="0.991343" stroke-linecap="round" stroke-linejoin="round"/>
<path d="M212.765 230.127C209.911 227.219 202.96 228.517 201.861 235.216C200.762 241.914 206.63 247.764 215.248 246.137" stroke="#EDEDED" stroke-width="0.991343" stroke-linecap="round" stroke-linejoin="round"/>
<path d="M167.146 203.279C168.24 211.035 167.802 224.503 167.737 225.357" stroke="#EDEDED" stroke-width="0.991343" stroke-linecap="round" stroke-linejoin="round"/>
<path d="M181.556 236.525C177.29 232.055 175.256 229.164 175.256 210.18" stroke="#EDEDED" stroke-width="0.991343" stroke-linecap="round" stroke-linejoin="round"/>
<path d="M103.684 205.673L164.773 229.64L194.352 288.715L128.604 259.676L100.326 207.113L103.684 205.673Z" fill="#EDEDED"/>
<path d="M100.326 207.113L161.416 231.08L190.995 290.156L125.252 261.117L100.326 207.113Z" fill="#CCCCCC" stroke="#DDDDDD" stroke-width="0.492933" stroke-linecap="round" stroke-linejoin="round"/>
</svg>
